<mxfile host="app.diagrams.net" modified="2021-08-21T13:41:18.917Z" agent="5.0 (Windows NT 10.0; Win64; x64) AppleWebKit/537.36 (KHTML, like Gecko) Chrome/92.0.4515.159 Safari/537.36" etag="uO849KxxVV6n5RkWW7re" version="14.9.7" type="github">
  <diagram id="gtxxHCl9Vu4IOZTowiDq" name="Page-1">
    <mxGraphModel dx="868" dy="425" grid="1" gridSize="10" guides="1" tooltips="1" connect="1" arrows="1" fold="1" page="1" pageScale="1" pageWidth="827" pageHeight="1169" math="0" shadow="0">
      <root>
        <mxCell id="0" />
        <mxCell id="1" parent="0" />
        <mxCell id="6xWL0geSsSp5vhT6rlvL-24" value="" style="edgeStyle=orthogonalEdgeStyle;rounded=0;orthogonalLoop=1;jettySize=auto;html=1;exitX=1;exitY=0.5;exitDx=0;exitDy=0;" parent="1" source="lFcSpTgD_a87EoRt-IDV-1" target="6xWL0geSsSp5vhT6rlvL-6" edge="1">
          <mxGeometry relative="1" as="geometry">
            <mxPoint x="478" y="254" as="sourcePoint" />
          </mxGeometry>
        </mxCell>
        <mxCell id="6xWL0geSsSp5vhT6rlvL-2" value="" style="shape=image;verticalLabelPosition=bottom;labelBackgroundColor=#ffffff;verticalAlign=top;aspect=fixed;imageAspect=0;image=data:image/png,iVBORw0KGgoAAAANSUhEUgAAAGQAAACdCAIAAADNHUrSAAAAAXNSR0IArs4c6QAAAARnQU1BAACxjwv8YQUAAAAJcEhZcwAADsMAAA7DAcdvqGQAAAASdEVYdFNvZnR3YXJlAEdyZWVuc2hvdF5VCAUAABUhSURBVHhe7Z0HVFTXusffeuut+/JuetPEXG9icm/ynhq9mqKxXfXaC6IGAZWOlKBGsUZjixoVY6dYUHpHAQGVXhSQOszQYYYy1KEMfWCYOee8/zBHRFTkAN7MkPNfe82as/c+58z5zfd9+9tzyvwHxWrAYmExEAuLgVhYDMTCYiAWFgOxsBiIhcVALCwGYmExEAuLgVhYDMTCYiAWFgOpMawuuaS1q75eIuys4pOVZWRTAymX020vR+oHq1kqyqmPjii5cjP/iGvODqfMLZWH11Amy0lrXfLX7ZSXA5WTTkk76d7DKnWCJWovji697sTdZpdmZJtiYJdqZJ9m7JBiIty9iNKaSWjPJNZ9R2hNJ/TmEwfNyJgQqkNCrzlMUg9YUkKSXOXvyLECI/tUY4c0U7qkm15ONRXuWUJpzybWz6GL7mwFNZ1ZxNEtZGEWvYnhkBrAauysDio8ZZtq+ASmfmA9Rjad2LSMjAqkqOGJZaoOS9xR6ZX986UUgz6Y7NNM4Ia2qQa2yfpl1vOo1dNoa+qDTHsGsXG+JDSeIukNDkUqDau9S+yXe7gPKWCCM15O3+SZvS+s+FJShU/jHUfC/jhxyJIwXUZoAdnMR7Bmkxvm1BkcyjGKaoyqpjc6BKkuLIKUhZc4XErR700K1nQ53fSewFbYwuuUtdFdu0XKZWRFKXHTibBarQjzurNAqtboULZhDG9DdJ7FfUl+M911sFJdWAUN9xWDXZpJDymELVfujiJxMtmvU5HVQuLSIUJ3Tq0hSMXy9GOy9KN5upHFxzKI9iEFLxWF1SFrhZfBjnpI4b1nzk/1kjK6R/+SSVu9wrI2RvD0FKTosjFKHF1FdxiUVBRWdl20bS9SGAevczaL2gV08wBEyKhyu1wYVA8s3vrI4sMZVAdB92Au1YRFBhachNP1wML7jJpQunHAktV2Flo/5G2IonnpRcMrJTlNdDNzqSKsFrkI+ad9Kh2t4IBeOful8sGk43W3y2BQj41LN7LWu5huYy5VhCVoTu5tVkgdUqsC6DaG6qxsz7N6wNtIGxfAlZ3gkl2DTLpUEVaGKBCZVA8slMqWPLqNoUgZWXIis8e44JJFu5JljVK6maFUEdb9Khek5kpMCO1O3B9bpHV0G3NVORZx1yHVikPh6sbmWyZLKzvoNoZSRVjR5Vd7YHVnDHu6yHa6jbnEYTz+TjfBXg8U/m73siP+0op6uo2hVBFWTIVjL1jGblk7O2SDT76JGlcyYwXJWa0oGZpU9npKkk+3MZQqwnpY7dUTszATvJZh2SApp9sGofJzVOYyirtKUTI1qFydEQUruyG8x7K6jcuQ35hCtzEUKW8jC7ZRnBVUpqaicFZRObojClZFezYMqgcWrCyq9BrdxlTtXIr3PZUJmxqhsLrINjfeTkQrJSwMiMhRB+WJBCk8S3GW06RGJCwosuRKb0+EcYUXO5AMf/AkmxOfMKuRCquiJedyulkvZzSxTzPKFDGZHnaUkHnmj6PVCIZFkPI7/Au983iA84i1yc8vIIgX/2xAthdQBVv7khqpsKDa9uLrnC3dkcvEId3UPdbG19fXx8c3MTFRLBbTnZ4SSbRRDcFUjsEzSKGMVFgQVxQO73NIN3GPsfHz9QMsyNvbOzAwMCkpSSgUNjc3d3Z2kLJWSioi27JJkRdZuF2RTHFW9sWkLCMYFpwxscLTNfqE7yNSSvn4+Hh5eeFNQEBgaGhIPednKldfEcsx8CkMqldEV5SRHuB7RJIEj8fz9VEYlJJUb4Gaj493TYIplfk0I5RVChPjrnlcM7JhQSRJ8fn8oKAg8AIbmtNj+dQkmlNcjcdEaC7wxFVkmQ1ZcYbKfOSVIx6WUo2NjQkJCf7+/k8h6wMLAWsFCplvTtaHUGQXKY547JsgmKNHdg7srMdTUhtYEEmSNTU1KSkpwcHBgARqiFx4qX5gQmUupTjLFM6YpUPy95B1gWRXLb2WrJ4s2kVlLKUylilKxQWSlCmbmEqdYPVIKpVWV1fn5eVlZHBSUpJbBVeoqrOUyIlqvkfJip9xZQNZR9V7UBWnKXEAslW6krnUElZvwdwwCJB40136EamIfkOS2sP6d4qFxUAsLAZiYTEQC4uBWFgMxMJiIBYWA7GwGIiFxUAsLAZiYTEQC4uBWFgMxMJiIBYWA7GwGIiFxUB/XFhdcoJg+DvzHwhWbavUn1OdW9OqRCSoa3dPrRS1MLibesTCkhFkXFFDWF4dp7y5urkTgFATzxefjSm5EFdaIFLcfpdd3Wp/v6yo9olb8frRiIXVRZB3cmrt7pcdD+fvCy44FsYPya5t7VScJUsXNp0IF/hmVMkJsqq5E7xgZcq1+tfId0PYVJNEli5svhhXuisoP5BXAxOTdBHOyeWX4ks7ZERlU4ddfFlDWxe9wvP1xwrwgvr2kxGCI3eLKhoVp1pvcWvASyYn4aqeaZWKs4/9Su1hSSSSo0eORkVG0csvEkbA4CzR9oBcRHoseqVXuaZUKt9klL/g1gS1h9XS3PL1lK8vnL9ALw9M9wVi64C84noJwta5mOLUsqaG9q68bnz9aCTAmjl9pr2dPb08YGGg3B9SgJBf2iCxiRIgitENzxczWDK57E7onUMHDh05dCQkOEQmU1yOkpOdc/HCxb179uIT84v4qGlvb/f39Q8KCCoqKnK86nj61Onkh8ndG6B4XB68ZuP6jfob9a84XGlpaUFlRFiEu6t7RXmFi7OLm6sbaqoqq07+enKt5lr9Dfo+3j7KHQmFwqioKKmUvgEuLS2Nw+G0trTO+m6W7SXb+Nj4Az8fsDlpU1BQoOwAPUx6aHfJztXZtarqGXdHYxx0Tq7AG7zGFDYoK/sRA1gEQRw/evy9t94b95dxH3/08cplK+Vy+S3/W1989sXbr7/91zF/feu1tyZPnBwbGytuEE/7ahpqpnw55fX/eR3l7+P+juPERo79cuyTv3wyd87c8V+Mf/PVN/fs2oONbNDZ8MG7H2hqaL7yX69oa2kD8ezvZi9dvPT82fOHDx6eNH6S9TZr7N3T3XPShEn19fQ9XcBtbGiML2b+nPlzZ8/VXquNrc2bM2/KpCn4StDhwrkLy5csx+vO7TtXLF0h4Pe9xVrUIt0dlF8mliDVOh9bgkhPNzxHDGDV1dX9Y+I/Rr87Gh+6urpaIBCUl5d/Nfmrd99898SxE3w+3/pH6zf+/MbihYvRtGDegnfeeAdAXZxc8B68rCytSJKsra3Fhy4tLb3ueP2j0R/h4GEv5mbm2Mi4seN+3Pzj7aDbQGCw0UDSTt/nm52dPfH/Jt69c/em/82pX07tgWWkb2RqbApYc2bMWb54Ob4hVKIV4LZabU1PS58xbUZ+Hn2Rn4WZxcGfDyrf95ZHWqVjYnmXnMQbcfsLsgcGsFpbW/FFAcc3U7+BgYAX3GfUO6NwJDh4dEhNSYXF/e2Tv4WHhS+cvxBNcFXUwxGwltYaLcDKzc3FEU74YgLs7sP3P4TFcTO55pvMQRPfPzo3NDRMnTT1wf0Hil0+0o5tO8DR389/6uRnwJo1fdaZ02eUlRBMadH8RfBidD514pTNKRu04muDUz99DX1Jg+Sn4IJGiQyR/oUTRWYxKy8vT2+9HkzgzT+/uWzxsssOl+E++EzKiJCdlQ1Sn4z9JPh2MGB98N4HEeERqIcRwUO11mqh24L5C95/+30rC6uzv51FZxQlrNdeee3c2XPoXC4sh/PCLhT7e6QD+w9YbLLw8/HDvkBTWWlsYKyEBZ+9eO6ishJClIQt7929F6HgxPETygJ2MEx8W3SnR0KC+ss9PlJWerlfMYtZiMd4TUpMmvjFxDGjx/xm89vnn34+9sOx8BF0ABR407dffYvj/9c//wVYMDHUO15zBCxdLd3EhEQY1JyZc6SdUgwLn338GUoPrDO/Kayjs7NTY7lGb5dpqG9ACEfsx9gy/vPx1VX0U2U0V2qamZgpLWvf3n3KSghYTQxNrl+7DvdEK137fF1OEN7kDuhJNQxg1dTULFu0TH+9Pj7Kh6M+RPxCRNixfQfi9OQJk40MjADuvbffw8iIL3/mtJmIWffu3sOKV69cffW/X4UXYKxETjRm1BhDPUNEYowVcNvMjEwTI5M//eef4C/KHcVEx8C19+7aC2eEI8P3YSk4bAR+GDUiQLGg+NqVa+BuZmqG4PDPWf9EnPJw88jLzbO9aDvhfycgR0WUQEqx2XIzvhWExbTUtJrqGuX2+yiAW3MtUUgv9CsGsLB7Q31DRPRvpnyjt0EvNiYWlY2NjYgL+Lhfjv9yycIlN67fwDCPAwBE7e+1MbqjT8CtAJgGwj+sEtaB8IH+cI1d1rswDhYWFCKlhDXBTbr3o1B8XPy6teumfT0NFDC6wXbq6+rhRA72Dtj77BmzMT5ioDx08BD2tf+n/TBtBPWlC5dqrNAIDAhUbgS+rKOlg30tWrAIQ21yMp2+9FFKaaN3+oAeu8IsZuFoG8Xg09jH+fGJMcx1SB5f24qekLJbV1cXOmBeomyCo/V4h7IP1NO5R4ScEIlETU1NnAzO2DFjEYOUHbAjjCdIOCDlNrEuXtEqFouxccXKj4TEsLKiEpalTOieKYR2qWxAz1xhBuv30qmTp7Zu3gro9PLvJPWABUy/OylIPWCpiFhYDMTCYiAWFgOxsBiIhcVALCwGYmExEAuLgVhYDMTCYiAWFgOxsBhIzWC1t3VUVtSiCIWiPqVYUF1VUdfnR7HhlTrBqqttMtX7de435vOmWcz4atN3U58o0yebzP3WMvR2It37JUidYCXEZ306SnPcqJWfjtb4bPQqZcH7T0d1l9EaY95Ysn+XA937JUitLKuuyczw5LzpFotmb14020pRZlktn7dt1aJdqxbu1FiwQ2vlT/GxXLr3S5CaxSxJe2dmWnF4MC8iVFHCg7n3bnMjQrLCQ7IiQ7OrKxvpfi9HagYLCrnJM/3e/YcNXiiWup4WOh7mOh5m2u6b9XxK+S++uGMoUj9Ywf48vRVOJmtdHxU3FOM1rhY6nsWFg38E80CklrD0Vzqbfu/Wu4AarIyF1Vf9wBIU0E82ekkaObDMtT1yeUP6P48XSi0DPAtroLrlmaGv8QxYZlru3DTFNY8vT2oGSyqVndx/z1DTpQ8sFFR63Rjkw70HKDWDlZdVbbbOHXbUhxSK0RrXvZYBDXUDvRFnEFIzWE52iQZP+aDRalfj1YqEC9lWbPjjS5WHXeoEq6621drUD0R6k8LibstbO838jde4GK5yOXc0sqtreP7N8GmpE6yYewUITPBBo9V47bYpTddLJ2PgeqLqltOHwgxWOVtt9CrKf1nZltrAkskImwNh8EGkCHt/CNi0zh02hfiVk0mnCykJpeCIDt5OqcqaYZfawCrMFXWHdreIkLzWls7bflzj1S5m69xyefS1s+kPy0zWuBppuuzbHChuGPxfz/QjtYHlfjV54/Ib1iZ+Lc2KizHrRK1bDbwNNZwdzsShprGh/dyxKEVK0T2vfhCtuCtm2KUesBrF7TvNboLFD+s9+QWK2XIOt8pcxwOmhPLz1iBYU0/gV4T5Y5FwW+W6wyj1gBUXUahMREHk4PZgX+e0fVsCkS6gBnYE10PIV5JS9rHa4FWUJ6JXHj6pASy5jDh9KNxwlbNyHNRb4aS72FFv+Q3gU2DSRMbgjLiOORBqQAr4UOPjPPxhXg1gCQpqLXQ8kBbA7zAOnj8W6X4tOdiPG303Lz6yEEYXHpwT4Mm5YZtwYv9dBDUYl95Kp/1bApsa/3j/UI5UANaEeZ+gsK6ttbOfM4OwQeRcWZzK88ejELkSYxn8LelApOqwYB07NvnDoCQvur+tt0r49eba7hgfgY+uGg6pOqyEGP6GZTcCfTLp5YEJjM4fi7Jc7wlqdNVwSKVhyeXkmSMRFrqelULG57jgg4j3/m5P3Io3RKk0rFJB/SYtN9tTMYO4gqG5SbJvSwDyr+bhC/MqDcvXJU1/pVNG8iD/ciLQOxPGlRQ3bGFedWFhErPH8tbB7bc7Owb5lxPCUvFmPe+LJ6KHK5tXXVgpCSV6K52HEnTA6OzRSEWYFwxPmFddWB6OKTqLHcOCcujlQenKuXjkaPGRRfTy0KS6sFwuJ+kuuW5nE0u88IE6z1GdqAUB3kDDKTa8kK4amlQX1oNoPrJwzF1uenCUP8swkrCk4cKvUZgw/mjgUyYYngtGVBdWR0fXtfP3DVa56K90PrAtyMc5DfgwtClKrCA+oig2rLB3iblXEBmaH3Un/15gjsNvcVsNfDYuv2Gp6xl2O3e4rp1UXVgQxsHI0LxfdodiCm2g4Wyk6WL86ESOyRpX4yeLyePrahQdthv7IkHjpVcM41WmKg1LKUm7lJ9fm5pQmny/RFnSk8oyU8t7F05qOS+joqfkcKtEVc2DDnbPkxrAUh2xsBiIhcVA6gerKE/EL6hFPKqpalaefMZU+YXnvtBTVN08xHmPKsKSdcnl3c/9whGSBIkjBBqZjD4p73U9xc81vbam5cjOkILcGgx2yCqc7BJ7ztp3SeU9/0eHFZX1Jfz6o7tDS/n1QxkbVQ4WISc8HJPTH5ZhELx6Pr5UUB96KwsJF1Inf9d0qVQe6M0J8efFRxSaarldOhktKKg9ticUiULU3fzOjq67gVmYOWMLDfVtMCVMAy6fjcdweS8o20zL3eFM3FDOv6ocLLmcgAmEh+S2tnTs3HQzh1uJI0QN5tXbjHxzMquc7RNRSosbrE39kEYA0LXzD84djWwSS+IiCnds8vdxSd23OcD9anJ4cO5ui1t3ArJgUHm86p1mN0FtKJ6oirCO7b2D48QUZ5fZzVxeFWD5uiieloQ8PimuxO1KEuylvq4NIJS/GrtfSXY8r3iSm5dT6jZDX2f7pEsnY4K8uZXCRheHJICOCMkrK274ySqwunJADxV7nlQOFmKK48UHh3eE3LBNMFvnnptVZXcq1tspTU4QsJek2GInuwQ0tbV27t8SdOHXaAT7sKAcYIW3Yia0f0ugt1MqzApcUh6U3PLIOHUwDLhrKpsxqbY/HVtcNPjLv1UxwNeJWgM8OXCfW54ZGPISYvicFCECucKhBPXwx+QHxeiGqYy3c6qwVNzW0qk4jXgnX9op46ZVeN1IwSSpvU1aUdYY6J0Z4MVR/oSfkVwGCx3Ez/k9UkVYKisWFgOxsBiIhcVALCwGYmExEAuLgVhYDMTCYiAW1oBFUf8Pa3SMvLHjhsUAAAAASUVORK5CYII=;" parent="1" vertex="1">
          <mxGeometry x="140" y="166.85999999999999" width="111" height="174.27" as="geometry" />
        </mxCell>
        <mxCell id="6xWL0geSsSp5vhT6rlvL-4" value="" style="shape=image;html=1;verticalAlign=top;verticalLabelPosition=bottom;labelBackgroundColor=#ffffff;imageAspect=0;aspect=fixed;image=https://cdn4.iconfinder.com/data/icons/logos-and-brands/512/144_Gitlab_logo_logos-128.png" parent="1" vertex="1">
          <mxGeometry x="385" y="402.23" width="58" height="58" as="geometry" />
        </mxCell>
        <mxCell id="6xWL0geSsSp5vhT6rlvL-5" value="" style="html=1;verticalLabelPosition=bottom;align=center;labelBackgroundColor=#ffffff;verticalAlign=top;strokeWidth=2;strokeColor=#0080F0;shadow=0;dashed=0;shape=mxgraph.ios7.icons.cloud;" parent="1" vertex="1">
          <mxGeometry x="690" y="224" width="80" height="60" as="geometry" />
        </mxCell>
        <mxCell id="6xWL0geSsSp5vhT6rlvL-25" value="" style="edgeStyle=orthogonalEdgeStyle;rounded=0;orthogonalLoop=1;jettySize=auto;html=1;" parent="1" source="6xWL0geSsSp5vhT6rlvL-6" target="6xWL0geSsSp5vhT6rlvL-5" edge="1">
          <mxGeometry relative="1" as="geometry" />
        </mxCell>
        <mxCell id="6xWL0geSsSp5vhT6rlvL-6" value="" style="shape=image;verticalLabelPosition=bottom;labelBackgroundColor=#ffffff;verticalAlign=top;aspect=fixed;imageAspect=0;image=data:image/png,iVBORw0KGgoAAAANSUhEUgAAAE0AAABICAIAAAA8pu9UAAAAAXNSR0IArs4c6QAAAARnQU1BAACxjwv8YQUAAAAJcEhZcwAADsMAAA7DAcdvqGQAAAASdEVYdFNvZnR3YXJlAEdyZWVuc2hvdF5VCAUAAAgVSURBVHhe7Zr7WxNXGsf7/+zz+DyrZUEaJDTE1iosdxKhVq1QkVIvFFwpsuKu7RZb7bZd2dZ6ebRyCeGmLQ8tdL1EKyiVkEDuM7lOGBMCKeHy677nnJmRmxAgIZDyfd5nnpPJnMn55Pu+55wMvDL9x9AmZ3Rpk/Mlmpqe5FobSsvgBEIMGf2cAQjuxUZTsJzgpMf7PPo5IV3v/mxpbbQyTj+82HBVuoy8rbti2rfH8PlZg+oXxuudRcuX7vrVMjgVNywZIiZLbCwroL/7gu5/wo6Pc7Q4n6OIMyvRJktmIORSY2WJUXHDRBlHgBBPUVHEmSYyypIdMqkdjlli+kDqUM1HdEcbw7hGMe36TeMVcc6ILLG9SEZ9cc746J5bSGOcw4hz/dCullOW7JJJmEzxUHkhfe0/FnUfOzGJcpgQRhEnymGoWGgj2lNFg3eabbTZy7u6XrQ6Tlyo4CfXltpT4wwFWaZPKw2/9bI8qhAh1zLuvPq8nRcSJl1kOn/GAF1GRvxjYySNQ7WREqgmJycDtM0d5J3DwImCKS1EnD0qpv6a1WTwhWqBFcrBanO3t/VfvNANtOStxRUmTteJQg3pkvuG+pMKY+dt+7Drd3IfXsFjkyu56yFB7t+3nDv3ICWlUZZzKxCIIKeEKSvqF7qkJ+gPpmsunad6Hw77/ZwhwU/FxENyvVrt/KZ2YN/bbQnxyphtTfn5CkhfctniCpOfjlMlnJ+kC2ykMhP1ZYW665ccWjXLDw4B4MbLRC5AkBTtqbv17IOSLiCM3apI2K5M2N4CnNyFS2mNOGUSFoo2S0ylifTVpebWRruN8kFpLe4q2U76fP7ODsPpCtXrO+pitgFhiyi2FWjDyIn3t3ORFox5nAxZeKANtHm7B//9T+svnQzrJkUrGCs0kPz+QE+P5esvn6altsRsaQQwgscdw8gphoG6OJgXO4QFYi7nzMAdgbY4z1L7GfW0hwXHiLFwxA3I60mNxnX9ivrQwdux2+pjtjYRsDkRjvqc7O5wvJOizSaoxByyQ1goFuDEZnJB7JWwaQm68iJdw1X7kMaLpyj0QbSNbVH2Hz/WLX6t6WWEJELPCbXktPsUN6iqY3TeLjNycua458USnCTQ1+TKFFv27tT/o9zc3emELkN6R/XZX3e/Uffq1iZRbPscsJkhim0Lfd7C1wYZBRoc8P73ovnke/aMHcbsJBqn7gKuLsEptPm6zUykqkrRUtTQ+GQLKcWlAr6FsNSnoNHR8Uf3XOerzAXZgxk7KJ5zFm1QfgpncIN0uXUzWE6I8HKS2cL7/PfbSmvFUe27GQZkrMTNDRpHUJwksJ/QWHecvNAEoNMP112zVJZQcqkJpzE3+vIjang3GjjxAoAERavt9371CXXsgBGPGBYe14mCAXgrOvycpVHfuOp/zKeVTJGMSo+nTxRq4WQUchJ7HVZfq4I+WairKOmFl4ob5mjjJCK0hkFPu0IPGa24KXDyu6j5sVLO2FeV8tw6Mk0sqRBz8oIJeQJ24fe7mSNyfXaSNVtM/FyIdjmcsDfADeX2GEVCfF1lRQd8EPnIxRUWTvz0YGpyKuDzjf90215dat2fqstOMqK1h6daMWdsjFIsanx7b9vFz+5qh1zkE5dUmDiRmRMTAZfTxzjH7FZf/XVb+WHt3jeNWYmzIZfDGRejTIhXpKS0nal8oHpghvvzZk7h42IKU94iS2EQXT/YamvMj1VuDzuh7vNc/NhQLKflUjNkMll+XqAuwNkMR1EcSdSWuD8rkiWNfytXNTdrfD6EJ2RsMKkbRk44wrry1lZNkVxXd9nx2xN22O2/+5Pj/GlTUS4ULYV/fDu5kNrLi9HWgudsFsVhztg2KEVpkuJAfuflbx8+Z+c8ZApWYedE863EnZGoKS3U3WlyGnTPWXaso9VedXTwQCqdnQSQbgzs+PDwM+jCccY3if7SThI1L7e15l9dGi2Db7xCrQknl5/uvTuHPj5lgEnY7fLb6NFrl8wfFlDynZDGQOuY7Seqxj27W0+Wqe7fM/n96C836K4r1Rr5KRRhZqIlf4/26pe2vl6P1zPe/9Rzodr8Xg6ksel4QR90+f5m75Y/NezZpSw8dFehUPtGUO1NTMwqyBVobfx8MdmgkLiB9oP9xvqrNr3WOzYW+KHF9tH7g2fKnkKXhoZHuenttbUqKzWyGgPnKBKcpC1h//raYNUxddedYdo8SltGun40QpeexzrVr+hZPtwBGwioIaCNHCdMP8mOjB1aKNrPz5p7VG6WgSJEVKQvPkIbluKVp6ugCHGSl8hVQmspyBiAiwkVzxkaQqLIcQpBzkvcpYefTYF/fN/Qat1w4v0QP69GO+fMvqHVJufqtMk5LzYyJ1kDp6KcEwZKoqWeTonT8UgveUS0kTnRWg/x5DFbnDv0Too1O4nbEiwQGzlvCSranVIm79c1tuJch1xK5UisiGpOAm9oTiJh7zbQx1YfNxzKQLWKaKOMc6Zgr/Nji+3UEVf+bh2Pin5eRxsnGv/0NOsevXJJf3QfvS/FkpPkkknRk6F5nCHbvgtaO04yelK0FsPYhXNDRblm+U57zuvkfzucAmc4tJZ+csJFG4A07n3Inj6uOZhmhDTOSWJ4zhD8qp6vCHCCcAWivYTXM35HSR/dT+ft0p18fwB+l/HFGWLaSHFyCyyOiWH36OWvdDV/1wYC6Ay+IMRTUWQ4iZmYVija6WH3GCTzzDMhVAT9DDHJ4oqUn2utTc7o0iZndOmPwTk9/X8D2EAzyLpcEAAAAABJRU5ErkJggg==;sketch=0;" parent="1" vertex="1">
          <mxGeometry x="547.0400000000001" y="218" width="77" height="72" as="geometry" />
        </mxCell>
        <mxCell id="6xWL0geSsSp5vhT6rlvL-10" value="" style="edgeStyle=orthogonalEdgeStyle;rounded=0;orthogonalLoop=1;jettySize=auto;html=1;" parent="1" source="6xWL0geSsSp5vhT6rlvL-21" target="6xWL0geSsSp5vhT6rlvL-4" edge="1">
          <mxGeometry relative="1" as="geometry" />
        </mxCell>
        <mxCell id="6xWL0geSsSp5vhT6rlvL-22" value="" style="edgeStyle=orthogonalEdgeStyle;rounded=0;orthogonalLoop=1;jettySize=auto;html=1;" parent="1" source="6xWL0geSsSp5vhT6rlvL-9" target="6xWL0geSsSp5vhT6rlvL-5" edge="1">
          <mxGeometry relative="1" as="geometry" />
        </mxCell>
        <mxCell id="6xWL0geSsSp5vhT6rlvL-9" value="" style="verticalLabelPosition=bottom;html=1;verticalAlign=top;align=center;strokeColor=none;fillColor=#00BEF2;shape=mxgraph.azure.user;sketch=0;" parent="1" vertex="1">
          <mxGeometry x="706.25" y="70" width="47.5" height="50" as="geometry" />
        </mxCell>
        <mxCell id="6xWL0geSsSp5vhT6rlvL-12" value="" style="endArrow=classic;html=1;entryX=0.5;entryY=1;entryDx=0;entryDy=0;" parent="1" source="6xWL0geSsSp5vhT6rlvL-4" target="lFcSpTgD_a87EoRt-IDV-1" edge="1">
          <mxGeometry width="50" height="50" relative="1" as="geometry">
            <mxPoint x="390" y="300" as="sourcePoint" />
            <mxPoint x="414" y="318" as="targetPoint" />
          </mxGeometry>
        </mxCell>
        <mxCell id="6xWL0geSsSp5vhT6rlvL-18" value="" style="endArrow=classic;html=1;exitX=1;exitY=0.25;exitDx=0;exitDy=0;" parent="1" source="lFcSpTgD_a87EoRt-IDV-1" edge="1">
          <mxGeometry width="50" height="50" relative="1" as="geometry">
            <mxPoint x="478" y="222" as="sourcePoint" />
            <mxPoint x="670" y="209" as="targetPoint" />
          </mxGeometry>
        </mxCell>
        <mxCell id="6xWL0geSsSp5vhT6rlvL-19" value="" style="endArrow=classic;html=1;" parent="1" target="6xWL0geSsSp5vhT6rlvL-2" edge="1">
          <mxGeometry width="50" height="50" relative="1" as="geometry">
            <mxPoint x="350" y="254" as="sourcePoint" />
            <mxPoint x="440" y="250" as="targetPoint" />
          </mxGeometry>
        </mxCell>
        <mxCell id="6xWL0geSsSp5vhT6rlvL-21" value="" style="aspect=fixed;html=1;points=[];align=center;image;fontSize=12;image=img/lib/azure2/azure_stack/User_Subscriptions.svg;sketch=0;" parent="1" vertex="1">
          <mxGeometry x="180" y="403.94" width="58" height="56.29" as="geometry" />
        </mxCell>
        <mxCell id="6xWL0geSsSp5vhT6rlvL-28" value="" style="edgeStyle=orthogonalEdgeStyle;rounded=0;orthogonalLoop=1;jettySize=auto;html=1;" parent="1" source="6xWL0geSsSp5vhT6rlvL-23" target="6xWL0geSsSp5vhT6rlvL-27" edge="1">
          <mxGeometry relative="1" as="geometry" />
        </mxCell>
        <mxCell id="6xWL0geSsSp5vhT6rlvL-23" value="" style="shape=image;verticalLabelPosition=bottom;labelBackgroundColor=#ffffff;verticalAlign=top;aspect=fixed;imageAspect=0;image=data:image/png,iVBORw0KGgoAAAANSUhEUgAAAJIAAACdCAIAAADQT7YMAAAAAXNSR0IArs4c6QAAAARnQU1BAACxjwv8YQUAAAAJcEhZcwAADsMAAA7DAcdvqGQAAAASdEVYdFNvZnR3YXJlAEdyZWVuc2hvdF5VCAUAADghSURBVHhe7X33XxNZ2/73/3rf53m2KfZd265rW7e4uruoSO9FiigCiqAiJY0EGHrvPZTQOwQIvSQQetlfv9eZM8SQhGRSUHyfvT/3h0+YZGbOOdddrvvMzJn/9/c/8hnKP7B9lvIPbJ+l/APbZyn/wPZRZW9vb3d3b2d7d2tzZ2Nta311a027ub21y33NW/6BzTGyt0cg2dslCmB2d6C7O9BtPd3aXVvZnBlT9ysmW8qHClMV4qe1qcFVk8OL3FF4yz+w2SsEp53d7a2dzY1teM/q8sby0trC1ArA6GtR1WT15L1vFUZUxz4sCLgidftG6H5S6O4k8jgj8jgr8jovDrvJ4GfcsXjLP7CZFuI9rNPASwAJYtrm+jbC2qqGoKKe085PLk8r1arBxaH2mY5aZWPBALxHGlX3zrfsxZ95wdcyPM+I3U4I3E4K3U4K3JyIup5MJX9ZJVtOCdxPC/wvS1vKhrmz8pZ/YDMUCtj25s6Ken1+SqMaWhhQTCkqRuuz+6ukPfnv2tJfNKSGVMU9Lor4OSvwe5nPtxL300LXE0CFgOF+Soh/3U4L3c+QD6wK3KCnTKvPBQk8kjs3b/kvgo2jA/sBDa6DTKNZXFucJgFtqGO6s36suXSoOrOnMEnBRMvFEbVJ/hXxbsVR93ODr6UjoBFIqFI89AHYdyBr1eOMsFTUwTWRt/wfgo2QAqpGwoY7cLaFqeXxgfmOemU1052X2CKLqk8KqHj5oDDqbm7EnayQ65kBV2XeFyQYTZevU6CPv0l9fCIVwY2ENaMRd4gC/oL3CtgT1wt+8nnDBpD0+TS8R6vegAMh8ZDIVjlSxXQzr+XIN1H3857+kv3kOhN0NcP/kszvuzQEN+/zEviQ5zkQBCGUhrUPAe3IoDqgTgLmlRyJE33hL8cSNuox+4wAvJmQgo1t9I0UOiub4AVIPOr51XnVsmposathnBC2xJaUJ1VR93I9z4offyVw/UaAfHOADrBj9EH1x+7TKRqWFlmnVa+jx1z3echxhA0gra3AaVbnJzUTgwvDnTN9zZOtpSO1TG9hiiIjuoFEtkeFYAR+F6XuToSq4S/NN8Rvzu67DkcKDEfqWCmCsCCkWj2vtSpOfiTYSMrh6hsS0CiZXtcSRjA3oabYwGlaSoZrmb4yUWfumxYQtuTgypcuhZG/ZYdcz/C7mIZaxw0gGTvKEXkPe8wDvOMIFLAl+pTPTqgxONxg8ZCPARvsCCCtqNemlEsk5dSM1uX05Se2pT2tf+9TEe9aEuNc8Oy3HDAC5BsEDfSEcIF9OnBUqJhVnP3RlyloT/CPGWD5ridSXb5JMfiNQxR9fPWoUNk7h3TAjRcPsQs2SgdQ4sB7wNNWl0nKmR1Xj/fP98gnGgv6SyUdTFyTMKw6wb0k+o/8yF9ywm8zoTczg66l+15M8zwn9qBMel8NuvRJ1OOsCFQl0a+8PqdvoHVK2TM33DEjLxp8410K6u9wSgm7fH4vt69l0qqZSdOwcTGNDWuEFJCZAsILON0kswZbGzuLM8sodxTVI2XSDlFkTeyj/Ig7TMAVGbrtcVqkgwS+QqcGXJ1YJv3RXYe/orX+l6UdNWMwQfQaI8AK0u0uLLJE2E575MB8iQEJv5PVUTeGUeVGn4eYgA2AIaZpltYWppfhOhMDC8Pts5214ySyvW+TRtUleJaE3mI8nERga24nufITIMFOWUYg+kAKHNrDo1a09smNTEXlKIIH7BVw0YkSWCo+g9ZurG61VysRzz3Pigz2tVkBG2r5ltJhuAEHAA8xARusrKtxPCOmMdG/LPZhQeitTHgP4PnAp9mTcX6jU6MGfV4K80ImK0xWACriX6zgM0qL/rbJzY1t/Evdrqdp4tXDQmKsZxwR1Z0EfpekIMlwFXpSPmICNthaWVqHz4U0Agx7aHSJqpm5tc9dESGQgGfG1DrMIPC5xoIB1BsLU8t0C77ERqSG6L/y3U45JhnDd4tSFKhH6Sn4iAnYkLcUlSP+F6U62ByuoPKeZ0ReZ0FJyCWMTx9InQQh1zIH2iYNEgzyBajvk2tM68FJegwRqMpblqQgtBoezVp1EubEt6xqNrij8xDTQXKkeybwSrojYSPOKnQ9KXD5KvXpL1kZsQ0N+f2KqlHYsiiihkwD2n8uO7B/+J9kcEXjghe+Na1Uh99g3vtX6HshBP+BtUc75wM5g6NZrU5CWVTD8tIad2geYgI25N7pMXXIDxmGR7dJKfaEVZ+TCMNrBtunkDCQ2xGKkYRJ5bCy2dOkev57jv5e1iqhQiyhCLgqZVMOW5XTBGz0Y30lPzghLBYqNtZI9jIW9ZwWpUvwtQx4gwGu8LmBtqmIn7PstW8nQUpwJU7EHZeHmIANkQEj+/ROluHRrVIn4l5Ay++i9NmvORnRjaPds5trhKFxp9kXWPHO1i74GwYdo294HEuKXbzOi6N+z61M76rK7Ma5Ev3KYh4UeJ0TP7me+eLPPO/zYgrhAUXCPiP0PCcKuppeLFAQ6njI3NLq8uYbj1KvM+LupnFDjr5HIhPYROBVmZ1x/o1XqS598hETsEHQmqj7ebR7NihKyEdfpgRdy3jnXV6R3jU5vIRxwTFhEAcjDcFsa2Mb21dXNgqSFH7fpRkcyqKiZk8Nrhrrm1uaXcl/11Yu7extVsU458NQOmqVuW9bfNljunyV8vCL5EdfUiVXZFDDpARVIVCvrWwYNktP4IVwBbAGcWSNMWvAjsvq9ay4Zs+zrHEYNY+XOglgZ7MTau6gPMQ0bBjHtz5ltrWDVj+pwdUNef0gZqDOiLrccY0ENj6nIr+Bw8HcMmMaeRFr6i4oCk8JhaE1cyqUVrsokKeVS4gTgLCvRaVZXNNq1rvqx6sze6rSu0tS2vPfKrJeNTOx8uzXLaXCTlRgZMdNUpNxrTElMDjmVROyb8iPmahiua16gi5ge4xzgT3FXMTPzNTIEndEHnIIbHt7TFwTGIQNvo/I8/xeDmyzPq9vXbsFC+AOakoQM2fG1YPt0zRGwWNQOYFbPj7BXmcxpXBluA7cJeR6Zu6bVmMjNYCB/ou/cHdggPIIOck8VPqCHyNgwGVhIrU5fdzWg4J6vKNujFS3Rq3lpU6CgKuysb557nA85FDYarN7UV9by26RaXy/TYt3L1bUjIIaET8zOz44EdyiRNROi1yMLJwGfhB1P5e6nS7b4wNKK5QNYbcY5nVTr1w1N6HBj62aygNYBC++kBHB8bsaxvwvydCABLdStNM4C2ILSFZKSCXsSTcUVik8daRzlrctHQ5bW8UwuY5lJUfwR8Gf3aueXyWZjF8rkDBKJe1d9WO64cC+cDtsDL/FwIThvkTPioJ/yCgVd2gWVmHdxmPnEEGbDZqNeKAaWgj+nvDqsNtMa/kI/I/7Tk+w1/SoGmWotYZOFIz3G0Fv0yT/Th0K23DHDI5lHbVzEoDUvXYtZmfYTPNpY8EvqzJ6mBj5+uoWHTGcHYOF8gCcuKVsSPK0LjmgsiCpDdEfPzZJbewXHBAH1yyuIorqHxznQmiNvJON3gGSRN+KxekV7ruDAs4JBgSKZDgsFhWwnRA0FQ7AHLljWZJDYVuYXLYKNhLEzoji3UvAAsC++A8rYMAuyYEVCO4G5QGagW9BWFAzEQ87nNrYL2jwmnZzsGOqrXIE9oGTUtPAH5w3I7oBARB99L8sq8/tX9duGncQLUSgC7/DkGuERuNjQU8KytI6YR88x+1Q2JCZAi7LeAZJNBQkgnkpnxpd2sHQWzO8iAxgJeKI2rrsPjgct1VfaEI6esFZkLpaSocSXEurmR7W7TjkUFY7/897mmiRd0e75owDGn6sVa8jNrh8bX2GcxIgnOjijUU5DLa/tZqN2EcFFr2NnWIWBl9LR9WJmAbMaFf5C36PASpKboengmVwWz+RAAzk2u6GCZStb9xLhzum0TZ4G9xdFFGD/Ir+kqDiUYyfIRJwu+0LogWMz/c7iQ0MXBpVB4bFc/QOhQ1xIC2qzuKEG9qHKq2pcHBicMFkruYpOILPt5LuhnErQT8CYW/iAw0BAQETqc/rR/BE2pseUQf9kM71+pSQSWhineNAc/Fff9skocFWUjm3U8J4zxJEOPP1kk5MwwZBnAWXswgb3DH0VmbUvdy8xFYgze1svYx0zYTdYNJfNNjgr44X0JPNnanhJQQAcOPs+OZppXq4c8bvklTXazcnIeoWVPQGGRcBP9G3HB6pGyI+iogV9hODcGUvbEiw8pJB03dK6SmNBs/v5oz1zPMnQsayOLPy0rko7CZpunHw+SQCnxvpnn3rXeZ1Vix9Xp/zptlgHgS5v0zSQRuss7SFqeWUwCoPK2dMAJv3efHi1IpxyjQph8IGI0INQJ4ZsQCb0Pe7tAppF8KIPV5CYnJkvc/5tCqmG47Obf3UAtcf719I9CPeQyZKDtZk+Be+mPeudX5So/M5kLK3XmXWFU44FH5/UjijVNsLGzDAUVCHGZzAQGFW8W4lqiGrH6wzEKBel9MXfC0j7BZjPGP7CWVna1c1uBj7oND1RKpJohFwVZbkX6GoHl2a0S7NasvTOtELA4AtKvn9SeFo16xByD1MDoUN8V09q31yM9PgBAYKG6QXPri9bBXEmdGe2dAbzKMvU4fapz99etMTtGVmTB1yPcN04CEbEeIkwT9kQL3OiWmdYJVS2DrrxuyGjb0BJto53+AEB5SdA20ssKK8P0yQipHeo+7luZ4UZMXL9bPFcZCtjZ2xvnlw5sPmuDHuCIweZ228RwF7kYmSogEHwIbS7a13qcEJDqjjYIMAqtSQKlhu3ONizcIqT071cQQ2hObJCwf9LnJk0rGK8AvYikUKB8CGHIPSzeAEBup3Ma1E1OEoEpHztgXehvTWWT+GYeK2HhvRLK7lJ7b5XJDYEAYtKGA7KUDF7QDYUE4WJitIDWBwDj0FJ04OrASV4vaxT2qze12+SkG+LHjfZk/xfkSCMQVRjHcrtpYo8lInwTvfMgfABh+qZXrNV44IysjVisoRbh/7pKNW+eiLFNjde58KrdqKG9A+mmxv7siLB0E9bMth5tRJ8OKvPIPJ9MPEHGwg5S2lw+ajOQnK8O7n9SvqNZ41hxkZVEyxsKXGOBcY3Gn68QXdGR+Yz3/fKn5WW5bWMdI5s67dQuhGyn9H79hwaKhE4A27zfC8eGIONlhWr1wV8uMhxHdfcT5kuM66ccDM7WmrADaXL8n1kae/ZJEy4BOykj2k9o3M2EYwBbBHl69SXb5IEYZVw5gwLJ11ysdfW391xpL6X5FqFlf5GKs52FBpDnfORP6WbTEDu58Swj8Q9+30jwF425cpsBJUrO01Sp6B/khk7+/Nje3i1HbujnH2Xnok8nfeZUAO3CTgCt+rWvwVxR+ZcOFhrGZh295VDS3GuRbxue73+JvU9BcNIJ/2jDXNbTiaz7eSxjwUMdaRSUrTkZLRDIQyZEd8wL/kEqC1wl57Sw2uenTw9hDv8+KKtC71nJZ5Lbd2vtiCOgk8TovG+nk9n2gONsC+ML0sCK02cx+VvnpfkJQI26164MdASsTtLmzw8Tonrs7o5dMBnQAzIIRul8s6ReG1Ca6l8Y9LU4OrKzO6AAD3I/7CXnEUh9c+/CJZP0cgrrx2Kx4fWBjqmEYjddsdoIDtlKijTsmnCDYHG1ILiAYT2wRPMjyHKQUtDryaDqKF4bM2WCK6gvGnBFU9Zj0b4ahMRC7Sc1+bFZwLwCCoJgdVRtzJ8r8s9TzH+oETsaSo+7maBStur9cJckR1Rg9ZRUZvKhIE0vdiWk+jCqCis7rtDlAngecZUW1OL4Iz14LDxSxse3so3fLetfGEDYpwH36bgcnAUazKc/i9sm8u7CZDjwPYysVdfBwXtgX2xbxqAkcwDuYY5bzE1jWbLgSi/WN9c3GPiwy4PkgTAjhMKto5z5VfHOKp6HVhqmKDx4Nu5mCDILtUSrv5Nw6GiU4+/TmrpWx4ddmKwVpeWpNE1pL79dnjoAMVkm4+FTfd0fUbcl5dM3SKjWC5yp457tdWCXsvV11On/+lA8+MuXyVUiYmE0Pv/MpceBs0H/U4K0qPaTB9Q81BsQAbpCF3wPpJASFKkLrsPq16neQns14Ho8bPqjK6Ay7LdEcAfrVMH5/cpqgaJeTzw6kN9fE3Ka9cirY2rY7bEOyinl8VR9QhfJGZYvJXhGKAXvRIDq6kmdhRCmNNCqjg86CbZdgUlaOoJwxOYEGRDNhnWyURdZPDi+bLr3XtZlGqIuTHTF3mR6wL/jGDXMXgQYXf+1ag3v9walPqeyFtdlxtG8VFG+ZVmsL3itQnVaLwmuSgivCfmPK0TmQgx8N2ToQ6ik8mtgwbfYTLZAiyqLDQlw8LmwoHNAurJOLpjRs8CUF8YnBBHFELEmGw46uHRRhoC9lx728cIfKO5QfjfM6nEWJtQxnACsxudWVjTqWen9LMjKuH2mdI0b21IwirdjhsyO6H3T6rL5ZhG+ubf/FHnm2wQZEVQOfeeJeS58O2PvCUpdmVYpGCBEY4mT7DPk3mXMokHRb5CEYTie3pnWzdvocpvA32YTNsxoJewHczXzbackvk4epxVhh0JZ3PozeWYZtWquMeGbIpqxT0kjxNel787G6OIKxKFt2Q6FeGMIhQDj3w49MkLQtDq1eXDR/dNBYYAOwg8qccfdSNFXYT/EOG8c1xdgqO1lIyRNb6ctxcCYJTwOX00e5Z7hyHi2XY1HPad17lHnbARpR9PAD5HHkI5QTqd8LNdH7G8k9P9vlPcpcncjLvEU4NqTqMzuGYGIjH3wiyEpq5XztUEDCkUfW2Px9lpLAA/4vSzvox7gSHi2XY1pY3RWG1XAFrmzqRVTXf+ZalRdY9/SULyIH7PfqKVfbZTvIU7/08Jlbe3TAOhmbVnBaYC53G1J0ONoEtwCzy1+w3nqWC4JrFaSuer+UvSM8zSvUbLxuf3zRWwOb7XZrBqgwmxTJsG6tb2QnNvt/ZYVNOZCmCMlHH4sxKd+N4RVpXVlwzIJQ8rZU+ry9IVNTn9IP4LKNasD79rKjXxU9ryTNd8NezIp8LEhTIzEt5dUZvT9OEamhBPX+EN17iyN2NE5G/ZFu8D5iPogtIJdWM5aWTLcMG869hegK/T7fZphAPH/wnuSazF6ggY1EOieyl1ZCpXlAPbCSJx6bUA2KiWVwVhdcGXJamRzf0t0zCOJDJQBnwFSvcL49E2PuXW0qHESr1S3IblU3t+Ult3MEPF8uwoVmKqpEnNz7UVdYqge1fSfXZAwcKOMc9R0Mo5eIaCgYYAXi5zRZgm+B0sELmtZw8dW/Udxs0M6aRO/ThYhk2OMdQx3TET7avvkFg+zfxtk95/ewoBdECqYTcAmvDk20HFYk5NajaYoiwDBsIAmrMZ7/m2B4E2NxWIe0iOeb/InAYZFjkWN9c4BWZ9ROBBxSwJXpXWCxXLMNGQpB6LfrPfLtg+yK5KFmBeOuowHgMBdm6MEUBVmz7QLGwxbuVoOgyX7bygI29/PjWq8we2MDIM2MbHV7zHitBLJkcXnzxVx6G3nAEeCvC7KuHRdPKJfNVkGXYIHA4QrLtMCLUbcIwMvdxgJV8bgKbo0wYYQM0BFYIJSSI7RTlJgXv28Dj9a+sWqWADYFN2TtLEsrhwgs2SFaC3M7WxDwoUC+sfl6sBKEBkKDNO+yC6jA78NWh9unm0sFSSTsT15QeU99WOQIGS6MI/nTUjoX9xGCsDEaAp7o6pUb+mo2K0/ytCXxhq5B1oqK0uTVQ1P/TI2rzRnSsBI6FHDPSOdtUMJgV35zgWRJ+h/H7Ls3rrBhcny6V4nFGFMJeY9L1a3ZC/d6vAuWXQfd5KjJRyI1MedGg+bsX+cIGmyJrpdhBk9DJltIh+++l/DiyvbnT16ySRdWH/8S4kWUwU5CxTGT30wKv86LarF5dv8ADsuNaLD4XeKg6kbslK9O7cBx6QJPCF7bhzhnPM2J72C08NdGvDPGEO+IxFkQ8smjr9Uw6Z2bQEQP1+VbSVDiIEEr3hdsBRYP7GKxS7wsSsG6kSXpAk8IXtsnhJb/vpDb7PhR5EQ5HLnYfezKJFua8bUatyWfon93NGWib0gVJJMKuhvHgHzNshg2emhXXjDxKD2hS+MK2NKOF9dl1bYm9DlAibkcPjzlwgK1YqHjwb8uwuZ4UyKIa9O8AR0YEZ3nyY6bNMyYwbumzes2iuVsT+MKm1Wy8+DPPHm+DopOipzUsbMcaN7QOZhp1L9fCE71OgsArsrbyEUKP9ztkP2wIy4In1epZc2vw8oUNOSk5uNIhsHGzvcdbYFtjvfMJ7iW6ewCN1fOMKNm/Uj2/yu3DCmCjedF22E4JE33LzT8yyBc2ZMj8pFbwXYNzWKWw3KTACpCu4w8bWgjkZsfUhUkKemkXqt8XEMsXf+Qpewxv2d/d2VVUjwb9YM+67sJXjwonzd5Rwhc2MCV5yQC5NcH21hB9fjdHs7BKLrMdv4dFTcgemWnskU9kxclBPUAWkHhIuXZaFHorE+Wasf0BxerMHvJQoB0D9fxeDjEIsjrjtsngxBc2tGawfYq8486O1oBMBlxJb68d7ahTqhcPxJZjKxgxpK519r2mHbVKhJyM2IYSUfuM0vTUAUY5N6HN9roNeloQyj69rhpeaMjvq8zsQqgzQI4vbHu7e0uzK+4n7XsT1mlSlIieVsui65V9cyvq9c/D5/YFkNCpSN1qk8ayOL2cGmz14k0H9DR3U4nP+TS4ddTdPOMLAnxhg2CIyVuk7AuScDhYYthtpiK9MyW4cmJwgczDmh4BXjI7rlnTbn7MGWoC2CFnwzfgI1F/5Nl51U2nGO3IX7InBucNPNsK2LY3d+y5NeGDou4+R5ZkDLgki3EumFYumYw2PIWJbZI9a1ANoornthydADBECERLMpVl6nQ0sSGiGHbZVgVsMPG+FpXBzLJ1sL3xMru6DG9Fa7y/lSCSgJqmRzds2HEdbrxvPuwG89ajTPeuPO4Lh8seWZekTNxZn9NHnrwyai88HnU3uW/TtluVqT+wEVI3rYGBgqu0VRquq20NbFs7GTEN9ND0oA7R4GuZk8OLNo849hrrm4/+Kz/oanpOQsvchMZmCzAjOCSstlzSGfJ9prxwyGRTMT6DiunQm5nW5REnUksA6Yf/SX70VUrIjYyXjwoFoVWkhEDl5yTAh5qsHoOZZetgKxIocCCbr7oZK3qIVFcsUlSmd/W3TNrGUGDmo12zrx4VeZ+TRP2eq6gcWdeyN9w5CD4cZ2NtuyG/3/eCNOavAtWQYUDGmVCuLS+tiZ+ShXkN+vhBASeLKDIfIo3XObHXWXHg5fQ33qXMq6a6nL5euQoHn1dpZsbUsX8V0qvkvhfT8t61GcwsWwXbbmP+ADspfrA19in68Pz3nASPkgTPkllTbyPhKXDZmD8LXL5Mcf7fpNQnVTjU1oYDoCN+trUDzHBYQMK8ktOH9lBU4S9cEH6AUDE1vFTD9JicfcYWTskb3IUep0RgGczrppbyIaRJMjFmIGRtjU1yFwg7zwKzlj6rN1gZ1wrYdrZ2expVdl4sNVYczeu8iC10hOg5mK5tQ41BnBpZEjypZi9gioO+z8iMaeprmdQavcCLv6ApmoXV8rROSqHR1ICrspTgquJURamoI+9dqzSqPs61KPCKzPuc2M1J+Hj/7dMAGL8Em4j+M/+dd7n0eX2xUNFeMzrcOaOeW13VbKCKQGg57IYRmILkaS0dZ5h1sn+VwaoB1sC2vTvSOet/SepY2HRKp4tguSYMkLcszqxkxTXTe6hdvk4N/4kpeK/okavU89y7OnjaBH6JYUWwyn3bSt73uT/BCPBcviJ56AFS0Zcp5OUAJ8gsoruTMOCK7Nlv2bHOBYle5ZnRTRWyTkX1yNToEruesnVpG4EtO6EZpozA5nFaCMJl8NCbNbDt7E4OLUb+avl5MpsVsb6zXmlbhqOCAUI8kRcNvviTe5EZOv/kJgOThyvPT2nIYwYWkdsjy8TJiwdfuxb7fPuBzbMzk8SZABj+IkhE/JyVElSZ97a1IWegs258tHt2WkkWm0Eb6LwU2mND9ICHFCS34dSADU7y6mER4Oe+Y8UK2OAEcyoNMpCuGw5X1AOvXYswZNwpbRUcYVAxlRRQwcZeMtYY8aDv02OdC/OT2oY6ppcX15DkkZkwQBhZKE1U2BFfdTWMY9+QH8lrAOFepG1OQt8LaQh6UX/kJgdV5ie2NuT19zapRrpmMSbEnxxa76M9pZIOX3Z1ZiiC0Hj/gfdNWQPb7t7SnBbclFrxUSjG6NEXKepZu6cr2YlEWH3OmxZy1YI2mFgu6zEnBIgZWQnyzoaxyZFFjDt0YnC+vXY0PbYe2OAHZL5/n3k9+FdyQZICbkRm4+BD+2CDwRKFMzkSMiI4eH1ev/9l8sJOwPb0lyyUFtx3rFgBG5qIdmfFydEr2h+HK8kcX6YOtE1aG1jQT8LoVjbAwtVzWtBI8pb3jtn2amWcWzFdoobTfZsDawAF9/1O6n9ZBvW5IPE+LyGz+yh18Zv9n3mdEecnti0vkfX+bQh3PAVHRmroahijFoBz4XPw9xmkMacEQdfSO+oOPKtoDWwoX9a3KqRdBLYjcjjybqXUaqabxBzeQwR7Gumcqc/uKxG2M3FyUUR1zIP8gO9lyEDO/5NE18Ih0YZcgTQ64yFKi5yAyzLQRQMWdxQCnCYGF975lFHLQPdHumaeXGc8zhLYEOrlRUP0l1SsgA3jiBzbmDeAIdB1z/HqJACJIiGIN2xolSSy1u0EeSwRIZFeywUvZZ9WJawv5MeMaOf82IcFz+5mg/IBSC5jHaL4FqYZ9UdefU4/CgDH5i2Tsrm2jSIh6vdchF/8izMimYXe4GBDxK7LOvCiRmtgY42ivUrpq0euHK4g02nP69B6/rDhx/AJcHHsDnbn+21a1L3c9/7lksi6/HdtldLujholCqaR7lmUcVWyblF4zZMbmYiQAJgmD51iC3kh420GB0Q6sZ8c8RGM6ljffPhtJuiHdFSZJBbvktV9n97JpheAYILlEvZ5pX2xDjZIf+tU8DXHvJLbpAI2yTOrYUNFTGELvCpTDSwuzWoR2VAC6tFFck84nHhrYwdDszC13NesKhW3x7sXh91hQm8Tjfw9SxJV21YxMjehwY6sxx+5n0E21raLUhSg+8ivqDsp01maXUEJSB+ZR3jIT1TAhnTtsRo2UF4UK7pRdrgSb7MSNuDRVDBIuB+IxmnxKmuw3HeHC04BbLTqdbAYcE7osprUW4D546ClE2XPHCoT4uunRFNK8gI8NGBtZTPBo4RcCnAisDGv5DBEwEl3sRo21dBijHMB/9xuvQozXzayTefOaFGQCbrqx6lhep2VzKuWP0I2cpTAesrEHcAM8HicFvU0k4c2ABuIMXmWgMJ2IlUcUQP/0/XLatjmVZpEn3L4xMGxdoyCC8Cy6Mwkdz4eAhscap8OuZGJznudFXc3jqPn3HfHWxCHUau8di0GMOg+KFVNdg+94wGwpYZUUdhcT6a+9SlF4Yjf0x2thk09vyoKq7V3dZnD1eWLVMRhq8IUfgz2DKII2EjPs47RO6nMC6J0U8EAOBSwQd9BQPKTWrERvUcOZuKaqBfCmmOc80Fb4Jp0R6thQ4TNiG7E6OiPtaMUxhX5a7a1dRJgm5/SCEKrKGx571s2PgoDtF/Uc1pqbbT7aHxaVB3yK2BDwKjM7HI7STADchE/M4go2/svGbcaNoxIwXuF9wU7big7XJGT+1pU5E4Nq2SPLAaKQpsWbfGexeCQ3FcfURCrWSbFK07gV8jf7TXKx+Sd9PvdPyt651tG3lvBrtXdUjZElqRlYQN7721SgS7R3a2GDfGnUtZFlhJ09ESJy9cpoggbnxBAYCkVddC7b30vpgFF7ouPKPCSyeElnjaH5A1Cn+BZor9gGGzuxR/59O50gNpZr3T5ioPN97u0lpIPbzO3GratzZ3WsmEy3+pQ2NDiqPt5EwPsY1RWo0ZqgMa8QRwErUKoMbgv/6gFfgZrzn3TEnqTqZB2To+qMUrmbQ9+o6gZRYP1BwEtD7/JLM2QhzaAa3/bJAcb+1Vddp8uZ1sNG8LroGIq6l6u7sqhQzT8NoM6F07DncZ6UVQp4WcwTLAyPksyOlAwJr3NKjALnNrrvPi9X3lP4wT6gqE3CR42In/HPiC1mv4gkPUkL2dMs5fWYAqq4UXy6hjqHk5ChBNdzrYaNjjv5MjiS0eseEMVkT3wKnk3KxKSrpy0QfpbJ5/czESrnP+VNKCY4rYevQCDpVktBoRigL/Q8J+YrNfNsxOmbzjHRmQ1nwtpBvfAgZEFXJYNtpNrNDisZmH14b+SuXF2EiJ565ZYtxo2WJB6XpvgVkpLDTsV9uV9XlKQ3KZe4PVuFzOi7J17fjcHrXL+3yRF9Si39YgFTUY8rJB1kVUl9bIGxtrnW8mrh0WABzmMgLffOdbV1lCT0fkBfXVn15Mkl29YWV3efPC/+7CdEojCa3RUy2rYaEOTfCrpBRF79aQw9x3h63ZiBkFsiXEuQKsefpFcldnNbT1igRGP9sy+uG9iUWJ6P4HXObHsRQPcURdI8AFYghzo7mH9sAt7639LKXeNZm1l80OQPCWI9yjW7pdGVsMGwQiLw2vtpCQgu/6XpMWidhAwBF7u0HbI0swKYgCIGRgpClVu61EKTA0jy8TK2Xt1DDGgSrafFMQ9Lu5rnlzVbCALItBlvGhEPNTxfv0f+1yQ1GRx60mua7dQrum+jforV8eQbYENkvvW3kcUw24xNUwPMOOOaLcgySf7VyJIQlFI2O++FgVsEEwk4g5jMc27fJ0aeEVWImxXDS0Od8zQYG7wGyiAROQsTFHQ44PUJAbuv8LbSRB6K5M8Gcx2y0bYqhnygMJhJmZe4WcvHxYqKkfZe+sc4GdUYJvEis+KMCJvvcvYiXzuqyMS8kL7IHba0KiPxoqx8jwnfuVS9M6rHGxePxEaKBPLhQrQfeZ1kw42xM951TLtlI2wtVUMg+8aR2cLSu76E8V7lAy1z+hewAO3IAKurFMi9EsrBJ0sSlWgBkD0fv5bLrnMcWS44cgwuMaCAQBgHOvMKPySuObhmOFbUWgtdSkMUWFqG8EYX2GXk0KU88im+MpG2HqbJwIuWb124qMvyTwI8rNuKgQgof/4dxtsa5PVLfaqJve9FQKiVJfbF3yNvOUp7AZD7tO2o5wwL2gzaF7kr9kWw6O1ilCR5FtJrmCwb9ipzOjypMkIsJ0Q9MgnCCm1GTbAHnQlnd7pwEcRIrzOirPj5UhmZDT3x3NOpa7P68tNbAG7fetVmuBR8tanNCO2EVRwoG1qcXpFq9kgMw56uxwmyPad9UpkGpwu+IeM4a4Z2kPHC3vzqzSqnvMDhyqJ8J5lWg0JFeh4Z92Y5xl2+tdJ4O4kbMjvg2WjCTbChgENu8kgkeif0oyiHKHvhTFwoqXZlfkpzeLMysy4Wtk3Ky8eSI9uiPo9z+ecxPl/kjD6mbGNPY0T5D4cS3eYwwPG+uej7ufhdCham0sHaQ8dLrChXrnqga4QdqgCtjiX4rlJDfoLn5voX/Dahw0Vd1ka94pzG2FbXlx75VLIi0w6CZ5cZ+pz+k0mG2yB8xFlQyXCApjF0oy2q2GceSV/9lsOciEwEIZWg8KYf90qDrI4uxL3qAgn9buYViHrtOpKAnv2HXJV3WxoxVkWppeP4k3AVGEKsc4FqiHyapedrV1wEK/T3MUWRKyseDmZ39qzFTbUK4LwKj5RIvBKel1WH3v7CrcvHwE8aysb3Y0TgpBqIOd+SoiCAVUHzYvcjw4KdkEETvKvxGiC5aKK1028mhdiOuw1lOxXLa1lw1MjS+gdPBUnAkgHms2+ZxZhg7xP1iYWbVEBGwIGjfDQpWmt74U0+hWYxPvAcrQNTbIRNpQUee9bzMMGiuV6QtBUOGDbI/EYMJibek5bmd4N7gvP9vlWkhRYAV88zAIwyrKoBuoE7/0q0EPuC7OC0ZkZUz/9JdvrnDjwqiz8dla8e0mppGOke4Y+yqbLrDj+WO9c9F/5R4QZ1NUp9emv2V3sfRU4NbJDxM9Z2IivwNuf/56DJtkOG+JPbU6vedg8TglLRAp4wEGLtVrQ0KbCQQwokIPbvXxUoJ5fRZe4rw9K7rtWnBoZIvp+AegMt/VwQdMQdj485MHeAYAP8FfECdSXhamKoY5pRHhYqnpem5ug91DBUShyyk1uGVCWr268fMTN2oMA+lyQLC+tYTxthA220CMfR/gy3QF2MbvUJ1UIKbBQbh9bBSOLGFshZa/NkjAieO1eDDPkvj4oFeldGPfH36TS5Ty4rYcLhqYup+/x10ZdYJ/zwIfHX5PZspAfM7IS5IUpisDvER4P/tKx6iRANytl5HYYDB0CVaJ/Ob2UiiDp+pUAZNB22NDbyeFFwk1NwYYThP/EjPXM48T2eRonoFXAiYltgn+TWuKcOCehBbTIOPYqqkfd2JdWRfyUhRZyWw8RuCwKfz5vgMNJcWpYDAmPRwqb3jKgGD3Ya2oo98osjOrjrwTKnjnbYcN4wZbB8UxOKMOXS0UdfGKUVQIYov8keQX65AZD1kw1ejXfUPs0ylIEydAb5J4ZbqspQefRBUFoNf8y5uMownV2fAsSM2ADeNKoOvLKdtRt8LYTgu6mcdthI5xqfRsuZQwbhizqfu5ot4Ul0W0QFNT9LZMoAXEWIBfvVkJuHTzocFOjSyhLkQwQ1nqaJritpgQjAuCDfnDou7MdoXDrjBeNtF6CXeYltj5i33RGYZOXDNoBGxsnYx8WGAdJACkKr6V1PvdTBwmOB1NAPU5TNEJlqZhcE+e+ZkWzuEanFZAhmooGua1GgkNNDCyAcRw3V4MiGGIAQX8wgNvbu1WZ3XQBBhKfTwrKpR12wraHsEu8TT/Wk8XQxCWidouTGjYL/Im93Y9QcBQG4/0L3BesgHaG3SbzW57nRKXCDm6rgbBrw6Ccp097HDcFPKnB1UuzoB7ENxryBh78O4mFjbhERmwjMpRdsOUntbJZ+sApEXYaCw6+88uhgiwNRkcnaB59kYzPOJfOsZESkoIq8C20MEmBbnNf6AnCe69c5cne5qVr+fFRFDlvPEtnJ8gSLUgBraXDD79I1n2b6FduL2yNhQOItsR5dadkOWRHrfLoYANCqI5DrpM1khAtcTr9J94BSWlaB9IDYIM/kYrboCF7hNqgNtK1+dMr6QjhBBhJ34tpobcYcXjt3ARZdBf22FU/jrBJf4kuv/gz317YkPPdThJep2sBYEOMUtSMHh1sEHBU8dNa+s5rZLiGgn7d1TtEP0XNCDaSDBFWszizrJ9i0SoAKY2qR4VwtOWXGYWLs0qe7Dop8D4vef57Dooz5qW8XNIlLx7sbVYhEeh6hBIlQO919ZG/ZoNM2QHb7p5qcJHApnfVDRDSIGlA8BwrKPabCgbJEw+sobxyKQTvAlsBZuvazdGeWY9TpLxL9C1D//UNCDtiXNDCjxMeYRloBlF20TpEP4/T5EXW8Kd3vmWZsY3VGT2KSiUKFcQPdAHN0zcyCP5DoRZyIwMHoccMu8Ug7dkF28LUMuxaHzYoAlR+YhvIOve7IxCcGjww3r2Ee17rpBC5aqRzpi63Nz2mIeYBV9tFO+cPdUx/MCA2PEb9nsvtdURKPYn+JQs5YUDEYT8xif5lZWkdXQ1jKFrU86sACX6PkM7NWRO8Dl5TxH/sHLeydy78zv67jth3iE+PLdkOG6wY5erTX7N0hkAV+eatV9k8uWJ0VMihP+D9OfEtJOizAwR+4UVeF8S9zoWaORJYe42SclrsApLJxJL3YjnW1XBAGC7OC+7q822a/yVp4OX053dzUp9U5Se3KapHxvvnMVBoMEACQgQePcF/MCyMFXlp1cb2mnZzeWltaVY7O6bub51sLR8WhlezywFxsAVeSR/tnrEDNnYpUwRlQ+PFob+X1ef0OfCuLGPB2VEs+10y9wQJ0ru8eIjezceGxyH7i2vKg0Af8BfG4X1BEnwtI+KnrKi7eUn+laWSju6mcZgsEDKAx6TApOgMNVxwSDHTUTNeJumQRNY+u5fjdykNyfvBv5Nd9BcVdRL4X5K11yrtgg1unhUvNx44mAYInqJqlLuf4Gikv20y9KbRNA3rfPSzx1myZB4Aw4/R1PQXDdbdkqt/ZHJYcgN1yPWMF3/mJfqWpz2ry3vXhuN3NYwjYmvYVfI3EPSM1tnCZ/gTSb1bJPXC81SDC+AdMLui5HYmpik5qDLGuSDgsoxdz4Zdv0EXwIx653dRWpPdYw9shG3DOkCHjI8OG3l+N7e9ZnRr46iQm5tQv/gjn56a9JPlZqQgQeZnb3Jx+SYVpRsaiR9jvDKiG8kskX479ZWd8qcRj83W5IA4FFjci7/ykgMrCNNL62opHR5QTKGoopfiaEuoYECAEDoLH6LXppG3Nte2gdP4wDyKoqrMntyE1tSg6teuxc/u5vhflj7+mqy6hrGi8z581Pe7tIJkhe2wQdDu1rJhjJQhbKwi3CN/VjNkwdijQG55aR1JlITo0yQsiyJqSkTtKE5HO+fe+pTSu8qz4poRhfBjtKHgvcKkt5G4tw85FPYORi57UV+Z3tXdMDHeNz87rgZ5Q0ZApU9uXNhiF9wiKNGGsIBRfyIvv9yG5w13zrSUDWW+bARvAgkKu0nWHAFOPhfY9aHO0vVQ2AaYGjoziiNkxDTYBRvaOtg2TbzN6OhUYbxoa+7b1tXlTQPbtF/WtVsoSzEK6D+GBhwaw0oZbO7bFroEkCSyjk5aIlyXp3WiPYQ7sMU49/eMOPBq+vN7OeKnNYh4fc0qgASmt6ohDMKAVdFwh404Cw6IH+CMKCLVc6tjffPgsczrJpAR33NkCX9QJJyLYEPNAvBYiRCn+zEAR4OCngjDauyCDeaGqsKPvaPU8GR6Cr/OSWgx/4okG2RjdQt2hzIIvXpxP39m/MNCApUZXQ//Q5L5O58yet88jKYhdyDgiizgkuzJj8wrlyLmVRPqdGXvLLwW3yKycQpHIr5E3ElfKH2Az6HsUQ0ttlcrEUhEEdVRf+aiGnv4b7IqKJ3poGEWHw7M1vJRzu8J38GhoNgI10QfUaT6X5QGXUmPuJ2VGdtkH2x//z01skQeLzADGzt1DVpcJu6EbX6oouwWDCKGnt7THv1nPik59g/eUaNEhES3UbqBTGMLkEDp3Vw6NKiYmldpABUb8VhGrtck6k+6cAe3QwexS1v5SH12P8KGMKw6+q88lBbsRAz8lYVnP9Ja5U8EYFZxHK9zInIbxPcylGhRf+S9fFD4xr002a9S8hTEpxX2gWTU0zQBc1maWUEksBe2uQnNy0eFBxqky+34zPaE5oyIO1moYBzycA0V4m3RjdTbYp0LyZWOfQCG2me8zouRrp7dzV6YXKYbDwihD/sMgpKIbbK0IZwJ6FKaV5iokEU1vPUujfwtC/AgLyLwEvrAsv8DXTZQbgTIIHBbiA+x43CSXJoAuQfwz+/lgpskBxJskIOLkhWAR1FN1lOeUi5pFlfNTFnYC9vizEqiXznbLPbWdijbPmSOsNvMa7ci0dOa/PdttUyvokqpWSS3r3B72i0g3PTaNEYn7kEx/tUdfGp4KfQWuXwDIjBJ1n8/cFJABZCQnJAdF6aXR7pnm0sG85PaxBE1r12Ko+7noXrBjvAnNv/RiLcPiYE/0S5T1fuXIPQ1eeCBFAx/5WGIUI1hHKoze8BFuxvGBxXTY71z06NLi9Mr6oVVJGAED9gNWsVGbBIDzAyVvbAhc0if1T/+QuD3XRoiUtrzuhJhe0vJUH/LlGqQLIwKJ0Cb6H1I3D4OEhz59eNiMEnA9sa9jNyZut9PBMyXLuSpXDCOgbapzY1tNABBjzAI9cZo92xr+TAqTowmQHpynQm8KiMzEWfIZXFaSutnay54UFJwlmU0VBEksd1J6H5S6HZCiPQT9UeuIKwq500L6I+iYhQVNIgoSmmkQ4LNygZawrbTXtu1FzaAsby4htgCM0E+QEXJKqlaWKthMzwR7vcOFITcyF+yEXYwsiil9VMUchLqATLKp4W1Wb0Yu5qsHumLuic3Ml2+JAwTBRMqMwoDlGMQrLvQLMUqt7gEsQzyY/LaNlTEQT9kRPycleBZkvmqEZVvd9P45PAiIjY3AvqDwN6iiiHCOLDe47BxsBc2CG0Q98/HEfbuhKbCAVQXNGeAOuq3Af5dmNxG+P05srIuvMFznz4QPIgzkeREfGhf8WOURAFXZSHXM1FmRf6SE3UvL96tBHEY8KAilBcP9rWqQPTnVcswU5wCvgvvAUIkkHzcAXAAbB9fgBAipDSqHkgABpcvU/taJ/UHDqNZn9tPWAnNNOxFSHAKTk+kYkfQNjgNKGicS/E7j3JhSE3W6+YKWRfK5B75hGp4EWENwDiQQzlQPkvYYOBI7MHXMmjWwQeDohDm31U/AddBoQZu8vx+zhuvEnFELfNSTghbRk9j3gAKL6Q9RFrU6eo57dryJvEelhTg+CQDffwowls+P9gwoAvTKy8fFoKII9AhezGvmzDi3Nf7ollYRbHVUTsGbEZ7ZkGp6QQVgNHPgp+pfH6wIamATMPJKIPwuyidU5lYtQXYgB1wrgNqAF5wZOTo48snhg0F/5oWQ3tgqsKEsNcS4ShLs1rJs1pwbpZfENiYuCaExP8jaPCWTwzbcOd0FdM93r8AHzKDHDBDgdhZPx7nWqybuQYpj7iTNTn0UZfXOibyiWFDBKtmeuIeFzGxTeB+/W2TM+NqzcLa2srmunYTFeHshHqofRq1l/Q5eY2JrsACZuG3GGSvde3nseKnY+XT5zatZiM7rhllrP8l6fO7OQnupcn+VcLgGlFIbUpA1RuP0qh7uXTZCjoTSMsslFZHfd/DcZZPDxsCoGZxrTytM/D7dDITwV4JI3qOVXbKkSMgLAdxOyl8+aiwr2VSfxLyv00+PWxUQDcGFFPvAyrIDOwp9homi5zXefYD/j0tcjuBZMbU5/UheCK6cnv+V8pxgQ1+A0IIMBamluXFA5kvGxM8SmKcC17cz0eJJgytrszsUvbOba6RK2Qsled2/O+U4wIbFYABSFBsbaxurS1vojwguryBHEbmzlGc/XejpZPjBds/wlP+ge0zlL///v9oHjfTfF3UPgAAAABJRU5ErkJggg==;" parent="1" vertex="1">
          <mxGeometry x="695.38" y="394" width="69.25" height="74.46" as="geometry" />
        </mxCell>
        <mxCell id="6xWL0geSsSp5vhT6rlvL-26" value="" style="endArrow=classic;startArrow=classic;html=1;entryX=0.513;entryY=1;entryDx=0;entryDy=0;entryPerimeter=0;" parent="1" target="6xWL0geSsSp5vhT6rlvL-5" edge="1">
          <mxGeometry width="50" height="50" relative="1" as="geometry">
            <mxPoint x="731" y="390" as="sourcePoint" />
            <mxPoint x="450" y="350" as="targetPoint" />
          </mxGeometry>
        </mxCell>
        <mxCell id="6xWL0geSsSp5vhT6rlvL-27" value="" style="shape=image;html=1;verticalAlign=top;verticalLabelPosition=bottom;labelBackgroundColor=#ffffff;imageAspect=0;aspect=fixed;image=https://cdn4.iconfinder.com/data/icons/social-media-logos-6/512/33-slack_chat-128.png;sketch=0;" parent="1" vertex="1">
          <mxGeometry x="840" y="399.85" width="62.77" height="62.77" as="geometry" />
        </mxCell>
        <mxCell id="gZMLrTkeCTGnvbckj_-N-1" value="" style="outlineConnect=0;fontColor=#232F3E;gradientColor=none;strokeColor=#ffffff;fillColor=#232F3E;dashed=0;verticalLabelPosition=middle;verticalAlign=bottom;align=center;html=1;whiteSpace=wrap;fontSize=10;fontStyle=1;spacing=3;shape=mxgraph.aws4.productIcon;prIcon=mxgraph.aws4.ecr;" parent="1" vertex="1">
          <mxGeometry x="669.75" y="195" width="43.75" height="40" as="geometry" />
        </mxCell>
        <mxCell id="gZMLrTkeCTGnvbckj_-N-2" value="" style="outlineConnect=0;dashed=0;verticalLabelPosition=bottom;verticalAlign=top;align=center;html=1;shape=mxgraph.aws3.cloud_2;fillColor=#F58534;gradientColor=none;" parent="1" vertex="1">
          <mxGeometry x="708.5" y="241" width="42.5" height="40" as="geometry" />
        </mxCell>
        <mxCell id="lFcSpTgD_a87EoRt-IDV-1" value="" style="shape=image;verticalLabelPosition=bottom;labelBackgroundColor=#ffffff;verticalAlign=top;aspect=fixed;imageAspect=0;image=data:image/png,iVBORw0KGgoAAAANSUhEUgAAAOwAAAE7CAYAAADen203AAAgAElEQVR4Ae2d28t+yVXn/Te8EAUvvHA8g+AoKgjSrREGg4cRCQx4AmVQo0EQLzrJgIjYHbU7GbUTRiGK6XjIXNm5chzw14LexKg3uQghkKtAQm7DI5+3s95ez3pXnav2rr13FTxU7b1r12Gt9V1r1ap6nuerbivtQoGPv/767b0vvPv2Uz/xk7ev/9qvm+rztud/6GFsH33ttdsXvvCFXeizOvUp8FX+7XW3NwUQfADwCz/7c7dv+6ZvngqgKYWBUvnQqx+8feYzn+lNltVeIQUWYAsJVlJdQDqjFU2BNPQc6wt4l+UtkYR+dRdg+9HysSXcXSxpSOjPcv9d7/y127N//MfHea/CeAoswHaiMe4ia9Kjubs9lAcexAJuJ0FKNLMAmyBQ6jHrUtzEHoIfa+Nb/8s33f77j//E7dd/9Z2397344u31v/u7B5AAFA2Wf/vkJ+/uv/aRjzzU5z3e/97/+t3DxrqAm5KW9ucLsBU0ZP32vhdfun3fd3/PMOEHvAAMcGpAVgz3ySuMnzZpGyD3BjHLgbXGfUL2LjcWYAvIKEAd6fZiSd/zwgubR2Rx6T/46qu3n/+Zn70xhpi1z3kGjfACVupLgQXYDHpuAVSsHO7rLAmwoThare+ytn05ugCboCdr1JGuL9YMyzZzwn3Gda61vKzxWVuv1E6BBdgADRHS0v1TrFGuUFOPNeSR1nqMFS+AtXWOW6zrLBc5IGiFtxdgDcFYy7G/qIUtVn7bc88/WEg5BYRQp9xIrNWRgGpI9HApVjdGG+8Zhy5WqqfAAuxXaAeA2Ef1hMzeA5BYRwGpJX/IhcYync01hAYoIEuj2DUKcaU6CizA3m4PWzQ5kV8iqLHIZ8iNxv2NvVfHurneKgXuAm0d/y4NWEAUsobaQmBBQtYUsmM1Q+0QaT26+1siWtCCZYKmX6hMjOBKtCmhY6juJQEL+FIBJQkKxYAqYPWsM24zFveqiSVDTgCOCPICbb6UXAqwCAYnlEIaX+6nLKqQl4ipB9arWVWhh82xtgu0lipt15cBLNYu5LYKUAkKpSwq5Ab4XiT5CmvVUnGDVjku8rK0eZQ9PWARmFT0t8R9fVijOYf9ATt9reRTICeSvEDr007fPTVgQ+ASi0pecniB9jwXmDZWSlMgB7TEFlYKU+C0gA2tLwWsWFUAmJs8sOICz3T+N3cue9bLAe3a8glz6JSA5TSNANPLEZoS95V1rbWsgLUE8GEWXO9JzpqWwN1KTylwOsB6wSABba1FtFtACFwJ4J+S/dp3oF0OaJf38lROTgXYFFhrLCJCI4AnX2B9KkQ1dwAtClTT1itfeS/bo+tpAIsL5TFcQJazXWMJhFBpV3iB1VKo7RoFmgIt9K/hXdvI5n37FIC1VlADtwVkWgm0tDMv+/cfWYx3wse13fMWnw4PWC96+8johrUm7Uo7RJTXmvUtoeld0opRaG7zFTl+k+qHByza1zKX61aLKO2uaHBvePrt5Xwp/uzfePIpc3/30IDlwIIHVkDWYhH5yRZpd0Uq7wVm1FVOEIr1bAtfR419y3YPC1gYpwNCAjDymmiwEF27wuzXrrQdBYgIaz56ZX7U7crpsIANWdeWHzTT62HWrSttTwHt3XiA5d6Vt3oOC1jPurIOSqU3nj278bGJX0fUbV5ZKCxttr7mlz1CYOU+8YWrpkMCNrQV4O3X8cdURBhTX63TApID/KsKTO95ozzhEd9TJucaPuLhaJ7Y8lVjC4cErBdR1OtNAam2mJbhseuWNXBvgT5je3gvqX/3S/Huqlb2cIAl2OSBDStqz/x69VL3lnUdqyJS301O8Uc/v+Ky5XCAzQlKaKaWltHseydcQr5xhAISJYRFQSkdWUgZfyk/YvW1V7U3z7bq/zCAxbL2YDhrI4IaRJkBP5vxVij2AgX9CkDtmPQ1dY62H8nc9Bx6lb24xVbg2aOfQwCWAENqTRMSAA5RoIkBZkjIbYBj6+9iMq7Ums7OD4sbms8egpTqMxX5tfPLvW7ZxkuNecbn0wM2FBFOMTT1o9+aGQBat0dEeauEIqlVRlsrlhaa6Ci9KFG8HPkQO+C+5kNO+WrBp6kBWwNWwFfqJnn9tAhn7ruhwx85gkqdIwXIGC/nu1PLDSL08LAEvKX8zuXPjPWmBay3towJMsJbyzjes22P3tqxVt32n3N9JMCWuq64+7k0QvFdJU0JWJiV6yaiiUuFwWOuBUjKEnht5N7LEUTtNjI/xsOHMgIKWFFqZ08oThtjsLy6kls8JWBzAzC4WLVW1Qq6FQLc5BHJc79131cBYgltUeDQRdPJlo8UgCuZu607HWCxIpYZ3jVBpZ5Msn30sNqW2FgL249c56zvbHtXu455JqMU7Gw0ng6wOeF/GNc7WQ3e2yVGuehIqQCVnPn0VD69aTNTeyg2TTspj5CJmeYtY5kKsF7wRxgi+SjGsA6SPsh7AzYUER41H2Hw2XIUmxdB3nIrbk+aTgXY1G/7oF1HJQ3W3oBFyLwg2gJrHTdZrlh+cd0rnlE3qm3emgqwIZcRZqBVRzLECkDPbR0v0IQLvlI9BbzI8RWi5tMANhaQAUwjgkBaXCxg9bPWsl2Xo3zWmrWNqt4S40gnv2pnPw1gQ26OWNeRAm6VBdq7Z7LK4AqWoCf9vLaQB0vXK3gt0wDWWiHNjNGa024l9WS8DaT1bNsT5Cvd8yLGZ5//NID1gjIC2p7rSY+h1rr3POpmlcHIdbg3tzPf84KUZ6fvFID13BsBK+u90cmuh3q7rDKXFRXuy0mrDKFz7+24viNub20KwHqEFyHHVR6dcFOlP/LeWlqixL3bHU2X2dv3FH1P72jG+U8BWBFoDRopb8EAfWhilEUfGTSbUbBax4Ryy6EZ/BJZIT+7FzMFYK1LqhmwhYuj+9vCorcKc+x9hPwM52qRiZytPOsdnT2od3nA2i2dLSx6DHCtz1Bw/ObT0RN8yDluiEXVCvfsX7WbArBWS2oGjBY8u37ewqKPnJPM5+jzkMh9ylvwvLOR9N277csD1jI8Z920N9Ni/Qtgj25lZR4pK2v5h7I/Og9j/L08YPVe3sgvF8SY0PMZwioeyqioNMsIfnJ25P64XqrEvAUBtsyZPFa/J633aOvygNXu+NEDTiJAcgJo1AkxcVdT1k/GU5sLCGPewgJsLXUb3tOgESZJ3tBs1qu6b9yrMyTxGjg9NsI91CAZaWX1cdWQ1dRjEZnpffBlJpm4vIUVJpOfhdHanRyhhDRIcrZeagVeLDm8CXk/egkgvBwx59o59H5vAfZrv+5xzRfS4r2JvkV78n3REVZWAzbmrrbO04IxZM0FqJIvwLZSPvG+dkuF6JInXm1+LP2Qnylp6zRCgDXdRio67RaHlIMeC+UR851FNpaFVRZ2Fqb0GAfWSR/bC1mn2r60kg0BqbZt/R7LFA1ITzno55TPfDxxCsDa0yqaASOCJiIQ2rUbdYZY+tojx9IILXu7xrpt+vCA1GvO4t7Tj6ccZI6So0zOmqYArHbfhOiSjxQEDdgzMtlaWY7t9VKA1vJ5QOoFGqscbHBQtrFEZs7IS6HlFIDVwBGiSz4SsDqaelYmW2HvCVrtcsOv1DFCEbrSnAMgIg/k7P9qxQPv9POz8hK6TQFYBqIJrssWsB997bXbe19494NrJF+Lg4FoeP7ig38uL1mvSV+jDwGUCmmv+gi2dimZby/Qyn6v0LCn282433j27IGfwmfphxxFJGkBViixYW6FSpgDY9CwHIVDIOR+KgeAgDuVdL+pukd97n3fuMcpKGv54AlKMzfh2r7vxZcelC0KF56l+KqfSz8LsEKJDXNLdGGMp13lWU6OEFgrrael+x119lb3t1dZz1Po1mMsXrt2jRnqR8ZRky8LG6LqRvc9xtcwMvQObrSXdIQ6V9C8dra6xxixYlgmPAjcxlTCwnreSUyRpdqU57RhaZ7rGts1sG0ndG23bazscH3WNM0attQdCjEzdh+32ibtLmqtbevNcq1deD1XPBHcShQTYObDfGN0LVnrx+avlZ6MKSdq7L0n73s5APcCWwuwMe4MeIbV8Bg04p4FrV6HHUEz96JJz31nTUM9vtQ5Yy8gpt+XMmNlza0jw1oMF2A1NQaXYYLnrgmzbI6FgXm4Ytqlox2Az7OUq2VdX72PFxKKwWTIbt7So/a6tzdBe95YUlYcemNpLc+45lgiFjXFkwXYbPFpr4jr5DHa3gOoFmih3tH4+gyqbQs3UQsBIJc6uX2E+h59X49Vxlya2zVgrzFrxSdjsrRO9VUT+LOu9RE8pRQdQs93XcPqgwvCYC+vtQaWkbpt7a7pwAmAmD1BD2uR9NxiZT3v3vPUdNRjyFnPtozFWvcF2BZqRt7NsRZekCHS5JNH1l0SQSJIo1Povq4zUxkPAfDFPAmZE94JyqvGepXOOcTTkYrQAhaanDXtamFjEUyErYd7GgqI0L4WYBFucu0uH4XxjFnW9TrfYy6eawxdW5VviBdWadV6ZKH2Z7q/G2BT7nCM6LzLtoVsYXAcMSaYIdcYwZakA1/6vjxfeT4FUIQhlz0VhMrv5a2a1ouKyc5bbx2ztBtgcee0VdPl0BoEUMaCVGzZeMANWVlZzwFQ3f+ZGb6VmOIdaZpKOfdQRck4F2BLqFVZN7TWgbGehQOIOccUcbM9LW7dJvoB/IBcW1fuY5FXaqcAik+AqnP46CnW2h4XYGspV/CeJbIwNGRdYwCXdyUHgBa0rJ/keSoPjaFgeqvqVyjgKUro3zNybBW5p/DPwpDdXOJQwMkLTKCNYbJspoeEQAMR0OqgkrSh64TKC7D9xPvBM3rueVdZ2lNntb1aPi7A1lIy8p4lslx7rhJrTSKPYjVzwWe/6hWKXkrfkqMQVupHAfgWCkL12O4Rvkm+ANuPd48tCXF1HrJsAFYD2QtYAUbvYLxmXo5bTR3d1+OAV6GJAvBB81qXPa+qpDPdFuUz8283l9gSmetcy6ZdYjS3WF6YbLdwdAApFLlEUQBU7UKXCMyqm0eBWByhFrTw3spS3miOWWsqwOZup2j3ymM0ABQmspaVhOZF0/PRIJfnKx9PgZiX4/EyNSJrufGyzpwOCVgBI7nn/th9V5i60jwUsF6Q5mdpIMouj0LLqnlm3zaS3QCrraQwLMfCAlCpH2OOFooF2DYhGfG29oKEn5JjhXOT3evNXVbltj9bvd0A6zEsh9jaesYYq10ltPBKc1EAxesFCQW0uUsWHc/g3RylPxclykYzFWBjFlNPS5iaYo4ohR5fItD9r3IfCmilKjyVPNcrEh7Le2dXzrsB1royQvAcUZC6KcBijXG9c5mf0/eq05cCob3xXJ7ZY6W57/WdxXat7QbYUIg/xxWS9W8KsJCR9nLa3I7kqydNgZDi9oKJ+j0pi/KWPPc9ef9o+W6ABURCZJ3nuDSybskB7NEYcrXxeoDF6uYkrKmWHcpnT7sBFsKKpdREt78E4TFAQvkLsB51jnVPlK+WgRylzSxFDuTd3BjIsSh0P9pdAWsDBkL41IkjiRQvwN4z82hXuK92DYoMpPgv89Rbd7ynT7VJnbPluwLWakgBbA4QYU5OvbMxbPR8tgzawD/hueS57jB0sF+ru4I87ApYsZTCLMn1ccKQgKKda46yhdpb928Pp8ag/ehtMHjHz/p41rUEdCIvkm+pbPaSl10By6RDYf0Fxu1FQiL3sQMpLaNCQXu/8CGA4yBFLui8gNPZI8TQfnfAhtxitO8VGNACgN7vypqwd/BGgCrA9HKURAm/rdwQwLxC2h2wMMljIPdK3KMrMGv0HHUQsAQ8oXFhBbGoIf5ynz5r9sltdJnrK6TdAQuRRbN7jK1h5hUYN2KOGrAtSxL+BjP265bwGYvY0odd/15FuU8B2FDwCcb2/oW9EYJ+ljY1YEv/EwfFyu9EWyBZJQxQAVeLBffWr7lr36PzagrAQsSYlbW/zXR0os86foCkAYay/Pjrr7vDRcliSQFp6Af1dFuU4THvlSYLbta7tu3SNo9afxrAxqwszCn9YrNlCO2zlYCrNnrbwvZ9lGvPcmlg2H1P/SxUFotaA1RcZvq01tOOo2Tv9ii8CI1zGsAyQKvhrRBgaa22DU1M3+dvPbSrhqZfyadAaJvN8iJ1jXsN4Gr4BUBlDWyDSZ5iH7UN5VNo37tTARbmxr7UjJB4GjdEQtoD5Fa4EKaVfAqkrKylpb4GXGy31FhTRsM6WIBKu1hn2xZKQPdJ+Uoe01SAFaZZhnjXuMixCDKCF1pbXSWi6EMyfdcDheYBVhilh2UDoNZlTfdwXwNQets/Hp/sdg7jqrHi9yM4ztV0gIV0KYHRwgMoYTZur/yjnV3j6Ppo7TMzGPC0Amgr8Q0BFX5561L4pnlJ+Wre0pSALQWtZWLoGrDGrPJWgjq6H5YVKC2CbNalHN13Tvu4sNr1tfwK8clT5J4VzhnDUetMC1gI6jHIMjf3OiQER2VcbNyWboCX7Re2YfYCMFY/Z58WfjJ+L3me0xUUsKbF1IBloGhjwJYLzFC9o7iJmjkt5di+NjTCwslSAkv8xrNnD58egKYNWZ7ELKnHq1AEnzZtfeTiaml6wMIQmMVaxTIs9/pKYX8twCnQ5tIPywbwYh9t6bzAUE5fIbAyJ++wRKy+psOZyocArBAcVym17eMJxtWsq9CLPLW37dGr5h7RYkk1yjUFPi/if6XtHKHtoQArgwa4JRv8VwYsNMP6ldCrBrA6+FMK2JQHBDC9MZ052i+ybvNDAlYmgauMZscFi61zzwxY5sZaFHc1NU9oVeOheGCx97SFzAUsPAsFmITH5N46GJ5fMR0asJphXlBChEq7a/qdM5S15USwcxIgyQWV0DCV056knLYBeI6FRAl5fecAXcZzpvw0gIUpHmO5p7X/mZjHXBBcPe+UldXzR8nxfm2QSPebA1isO7yg39zkWVcscw7Yc/s4Ur1TATbk7hHlHJ10lHR0X7Z9DVrmWivMgB1vBFDlWMkQYFmTwgvaQBmwvq2hD+/oPqR8ZgVseWuvTwXYmJDVCrElWOi6VihD7ZXe7wVar1+AA5j5ME/vQ/+9E8AUkOq8xIvoPaa92zsVYBEkzVhdHr0FQN9sPYxWDDGB0XuVBKKOnEIxCe+M8ZHnWTr2UwEWzatBqsuprYNSwtn64r7tDRQdhMI9rnFF7dz2uPa+Fgk/R1jyPeZX2+epAAsRQts7WL/RSfoebc1j8wCgMg5RWBw9PFIKKV7WxVdPpwNsaN2D8I62NtI3v25REgntLYQEjgSskjMmzvfuOa7ceXqnmpjHldeuQrvTATZ0KgaGb+UW09cWkWlhopfHtmrYKsHqjlZg3rhS90JxCL1tlGrjzM9PB1iYFdre2cIt1pHq0QoiJpgEv0J0EKtLjuUFwPLNHX4lseWbOygBeT82Pu9ZKNDEOI/gGXhz6n3vlIANaWkYP9qq2PXXbOtZDdaR5RqL6B2SYIzwc6U3KXBKwKKNbeBFhHMLq6fdUSzYaCURE2b6DtFCaNI7p7/SOYeWMrS151ZZjLZ7PDslYCFkyMoCoNHJKoyW00c9xgp4ctzjXsAt3XoBkPDF6//M58BreHtawMbWcKUCVUNY+tACuPe/F0APvAs9pt5llELNEiC057qs61PJOy1gmapdT4qAslbaIsk2j/Q7w1oM6884ellcDmqgCGq3XEKuMDTbYvmyhRz07OPUgIVQFjQCni2ijlg1ffKIvrew7rkCAg0YDwBm3U2giI+MGVDLPXJoSV3c1FqA6rHRf8gVhlY11lq3f8by6QELaLygC8K3RfKCPqUBmS3GuUcfoaiwKNUeSmGPeY3s8/SAhXihtRtg3iJZ13zvyPEWc0714Z3GEqBKvve6PzWHPZ5fArBYNBECnW+5prRBqCuDNsQPzRspz7SE2AOgts9LAJZJiwDoHNBsZWUZAwrC9n819xh6x9atmj5SXqB9C7aXBiwCsaWVhew2CHYlSwtY2ZMWIJbkC7RvgvYSgCUaGRKOra3sVUHbAlbh3QLt7XZ6wOYIyh77fWyTiCBKflaBxO0vdYOFJjY/K43ecnrjpVMDFkHJdcG22JfVrHhQJM89/wS0R/uyuZ6TV2Y+KbCy7QYQve03C1iu9/5VD2+eW907JWABA1/W9pgdurfV6SfN2BBoGQvPjpxQgKl9VuGFBN7Ic0HLls/RaVTD39MBltMxoV8sEAEJ5XscNA+BFqt01JM+KMuUVYUHgNPOMUQPj2d4T1t7RjUg6/nOaQDL4YRcje4xn3sImWj7nkROtYWQ2uixjJH/VD2KJSlRlhx/DNG6BLR78SzF01HPDw9YNCxrGhHw1nzPr8KFQItQ8mfMs6ZSZcm55ZQSKgXtVYJRhwUsDM11vUpBvCdoY0f2cPWtC7kniEuBCh9K9r1LQEvbVwDtIQFb4nppsLKVAlP1L0Lo57oMaEMu22iQAITY199w/fntpT0SIMLa18QJoL383lMubUtBixI/czoUYGFyzToVV9MKiD0mqMEqZVzRvbZZENSUYgE0CCh1RycUBEsPaCL0Kcl5z4I812MoBe2Zt30OAVgYRvClRECIQALKmDCH1oy2HwRrrzUk1tY7ZGHHiJBSt1eCboAUulug2b5br3Nc2VLQ7rms6cUDr53pAQtQSrR6DlA1IXJBi1AiuFjcnlsJtIWVDHkOCB57jqHnFizQCvBCN+tV6HnbMq4q7zAW+rTtjr7OWZsD2pTXocd5RtBOC1isRYnglAJVC2yOBdOCQJmxIdxYoZgV1/3oMu+Ueg12DLnXgBjAe5/cNkbXY4y5dCxVsiWKS/NoxvJ0gMXihH6UKyQ0MDCX2R4TeFd+FiXUR+o+AAYQgBhLhcWKCQpWMNXm1Z6XRJBLQIsyiPHCk4lZ700F2Jxzp1qIsYy93FPawUrr9nuWcae1hevZ9hHaglfyCdEZGpWknMCh0OYs7vEUgC11f9ny6BlgESFBC4eESRiPkPBJ1ZP6Z8kBG99qIkAE7fEkUnNjvemtTfFoQhaylK+0n8sLFObR066AhXGl67gSt6mGOQhkTBC1a4WwMB6EudWlRugQcFEItBkbR8mz2J6u144eiwUQPEstWRi7plOID94ca77qiHeUS/+ciHRovDPc3w2wCAJrC09gvHswt5f7myJ87LRRjsJAWJkfHwSEdxBE5uBZAwAVEnDa4P1cgbS0w82EbrRPO4zBfrjPBwUUozFt0J7tQ65LPR/mJu9Kjutak2JWW9omL3W7a8Yy8p3NAVtqVRFwz60aSRTajoG2RUsDFi1AlGMg0fOkHuMqBS+KsWXMjIH4gh23vgbw8LY0eda/ph3pN+Rq67GGlKO0MXO+KWDRqDENrYlKGRexhXmthIexIXAQ5a0Zm/UqELCaBHix2p7FtnSUa9Zw8KAkMcdYRBv6tACAOcj4JC8do51PCrSt7dv+trzeBLAwvWStupdVDREe6+EBA/CVHF1EsEUoJe/hPWA9Pcstfdgct5Nxp4CGUqCufV+uoUtrYv7SnuR4ES0JefP4Je0vwEaoy57kkaxqaCoIbwgUAJeoKXViyXOza6x0qA8EMTRGEVabM3bZbiKYxDz4YFWtNyDvYlV7CT3zl3Yl76EIPFpL+73GHuLDyPvDLGwpUNGIreuskYSStmF2yE1GIBB65u4B0R6ro50RqQa4IsyxnPXmCB7ZdSxKpzWhPENzSXkWrX2PfL87YEuBClFhUMo6jSRCTdsIrhU0KyBYLqwVp54AsLV+PQQzNnbGGHMN7XhT16P2MUfRJTSfGM1mf9YNsGgtGBoiUuh+D/dnLyIDwtD6NjRffb824FQyX8aYCsLoMaXKIxQrNNT99lBkzFu3KeVRXk0JT1rqdgEsgYPQekcIZXOs05FdE030WuBuqawAmuwFW15wDag1Pyhby0e9EWO2680ee6UsC7x5QoMjp2bAwliPMLF7e2/XjGJYKXBHCH/u3PR2SmxdakGLF0WEWYJT2uXP7dvW88Bl65ReMydPBntE5UvH0rN+M2BLIsAQsDVk33Pyo9oCuMwztcbdE7B6+QJgQskDkwYCcwTUKOFad9nrIzSe3PtaIenxwpsjpybAlljXM7nAJQyPBae2BiyA8oKCMQvLXG3gCl7yTi/ht3LUY51pPQNAi1I5emoCrF17aE2my2d1gUuY7wF3NGABFABlTzXmCaXGYYU/ZpFLaKLranmhv9ak25NySjG19rnF+02AhdFCjFB+BRc4l1HWkqSAktuuV4++aB9lGds3hm8py2MDirMD1tJZZLOXR+DRe6t7wwCLGwXhVrqngAgPeQ9Lct96/IqAC9Fg6+ICyFDCjdZjpjwasK3bXVhSO+aUUgrNf7b7TYD1zoEKoUZaj9mIWDIebe22BqyME0tjlzMh5ep997U3YGlP5Ia8VXa8feezeHpNgIXxmtC63GMvTQTsTLkWpr0AK/TU/LLrO3jrgZV3RgPWjkXGm5t7X1iojWDn9rlVvSbAMsjY1kUr4bciwpb9aHdtb6WmAUuZ8bDdEwtQjQAsFlWPpQVcnhHpEXXeUkZifTUDVlsMTXTKMH+lewrYgAgCtkeybqjlXewaC0bkmQh0C7hk3nga0h/r65bkzavVxW4ZT+93mwGrLYYQXeehtVHviRypPR302evkTSz+oPmXUxbLzKknQMyXHXKTDWq1Bpy8AxNnksFmwHouiGZyKwNyGX+kekQshUZ7nG0FrHarRsYjOUoFy4TFgse8oy2h1EvlWGM8LSyyPs4owLbr5FYFZtevLNnOlJoBCzG0AFoGIhh7uX2zMkp7JVuvY71f/rCRa8YX4hnRVu0hWH63XLeCyzMeeyjEkXLXBbBaAD2GnSWk3osR1g3cwmVDmPX5YeFTzf4k462xttJnKG9V7p6b32qxe/G8VztdAOtpNs2Ura1IL+KMbEdbtdFBEQBmXUX4w4j8woUAABjbSURBVBhCljRn7ihqPQ/NcyljNQG3fFL1W2hh16+tAawcGmxdpwtgGXTMLYZ5Z9N0rYzSwjVSobEGDa1XAVyPhMdg+0EeuOcllAReV2hLMPSe15a+Bx1FUZDXeA+6vRnL3QDruSOaeCv4dM9+rJ6mT62Q3rd6f5X6LWGA3GNbRnotnQ/A1YpL3mdcpcsES0/a6qWQZH4z5N0Ay2RiwQiYsNI9BTS9eio0gEBUVgAQy3GVc9Mn//Vfo1V1PyUKyIuBIC8l7joWW/dPueT96MQmetgVsAidJZq+Xm7xPec1vUoF9L6lt64AinUN4QHKQfen+ZKKpH7605++/fBzz92+5qu/+varv/zLb3VmSrrNEsDSjAfaEiVmg2Cslc+YugLWc0s0E0sYcEZi2znZZUSLC4c18bZsoD/CLK5vCLQxgP2Pd7zjAawAls+rf/zHdioP15rXsfbcl2+3J+5xroJn7rpvymfdmegKWBgRCiRAxOUW34uqFbSaIAltcAghZFWt4FLf41HMNX7+B3/wDrC/97u/ez+R2+1BIWjQ0E9p0goMJZObPOssCiq3jaPU6w5YL4igGZmrNY9CwNZx2uh6rqAjkFhUlKCmr5S1VbVjDHlCFtzyHkcNxbr++Nvffvvyl78sjx5zLKr0TV6T9NZTSdDJ0vCs7jA07Q5YBEkzzpaXW3wvytY6xNxisabeAQhN55y9TOrodyjH1tGf//znbx/727+9H7y6agWspkOJjEATO4+Q4lHDPWyxO2ChRGxzfLnF97KCwOloMa6tduewbmzPpECK0NJO7tqRfj3XOAfs9zN486oFsIxFPAXmwHVu0kAX4JZY59x+Zqk3BLBoOCGely+3+J79oUCQR7vQPZRkiaAzAgsyaVsrjPuRhq90W6Uuqbb2pdbRusMooTOnIYA9o1uMJsf6jVA2KXoJkEI5gC8Fqwi1FXj6KHFJpR0N2JKAkZ57KdiYs6VJaotKxnvUfAhgIYYnCEJcBP9ICcEQl61EGEvmqK2M0Cknh84tSQNG98f9kqRd0xIaaVcf0Jck3aeM/czuMLQZBliPmEJU8iMR1s6lRKhK6saUnKadlGvcYG88XmS/1MpqhZNr5bRVrlE8ll6lFtqjxez3hgGWietgigiZ5KVrlT0JaQV61Fiw5FrwhVYIpo0LlAZnYmOmX8urUMT4s5/97O1/vec9t///D/9w16QeN+WcJHvH9F1q0T13uFTJ5IxxtjpDAQsBRehsXqNR9yIeLp4e/xbjwAPRLqKlpX7WYzwacDJXCzyOKH7Ht3zL457sa3/5l49d6/dzlLGub/t5bDRSsAqMMY+IL0SGsMujoYBF6IT5Xr7LjCs63QOwepiWjiMsSY6V/a3f/M1HsHKQ4nu+67seh6kBmFImWFOJCdS6sfqQBbKFlb5CGgpYCBjbk00xdhYGaMBuLRgASVxHUXql7mMuHTXopC/W75I+9jd/cwfY33jXu+TR3S9QpPiqvYVU3ccOVIH5y/gkH6HEVJfTFIcD1gZshMDkucGJvamlAUt5y2S/JjdSMD0rayP6H3jllds3fsM33N75K79yRwZNo7sH5gKAigzULotsTIH2jhTENCQpuhwOWC84IAyLHTgvmsXgyloYtwQsazKhleSj12keGHKsoKZRjB3iyuKpIBs1SdxpoUmtW13T997vDAcsE9QukBBZ8lqmbUk4LYxbAta6wlu44567mWMJBUSxU046UJQTmPJ47Cmxo3hq3nxK720CWI/IAtjRFqOUIF59rXC2Eg7tOgqtyHGRRys5PV/pO7VulnohhcaYc0Dt0V/fQ3lIX5JfxR2GDpsAlo6wDkJgndeE9DUDtyjrYMxW440pOQSfH+UeBVzPysYUla4foo/+wfAcF9vjq+5HZOhK7jA02QywntaG6CGN7DFsr3t7ADZkYUVQyQEu3+QZkfQyQPoKKQg9Vs/V1coHOahNmg9Ch5giqe1n5vc2A6xmmhBb8pkJxNi0QG7lwgMOrIfQKJaz1uVXJ3omj18eGOlT7wRY68k8ZC3eEmiiH2lH0+JK7jA02AywME4TWpdnJ7oGrBXIniCxbUGXXNBCz97AtX3Tvpe05bNWGAsovNZ7ul47sXueArmaOwx9NgMsnVk3qwcjY0zu9QzgyFi3BCzjBwBeoEXG4+W9gKujutKPBzoZnwWQVnStSx/pQ8ZBHlov9+L7jO1sClitiTXhW9Y1WxFVxrs1YGV+9BtSeDI2m7cCF2Vhg4V8Hc4m+qFvC0rZc+VZixflBZtok/u1iXf5NQ/5Rz1+H4u58ZF7JX+bWTuO0vc2Bazn1kD4IxygYJx89gKsMBYLZ11VGVsoB1C1UWUvWGhpIP1qi6eVs74v8yjJdVvSV2y/12sbhUGAjmi1bC9JW7GcumyltSgHbzy19zYFbGwdWzuBrd4Tplph3ap/2w/Kr9Ti1gifXg4IDbSVhR5yX2ij76Fc7LrWziV1LRZc+iH3XHPbDmPHcnrv67Zyy7TVOhc7xtLrTQHL4ELWQZhdOoGt6otrONs4GU8pcBFQQJcbWfbaFzpo64cw89EWDMXSkkJeWQg43MeSanc8F5A59Wg31HfLPHPf3RywXvAAQoW2DHInMrqeCK0I6uj+StuvBW6Ou4w1s8IsVlboIi6qPiDBs9ZEP7ZvZMgmrKn9ooR9r9f1nqDdHLBe5BFCzr4BLm7VrIAVAa4FLjwAbFhdz4J4nhF9CQjgn+Vt67pPty/9kGurTR0P1Lr+iDLKYY+0OWBDTOihjUcSUJjO+I+QGKdYPxl7bi5r3Y+//vrjVLXrK+1o1xew6uvWQBMde0BkaUIK/T2JjC03h0Z6PYyy4jqHdnvIwuaAhdgeMWH2zEnGvAeTWuiCq+hFemU+qVzAy7owVlevGVtPNDFfa62lbzwd8XbkXk2Ox6AttUdjgCuxC68P5rx12gWwoV+h8Fyx0QTJ7VMYdjTACv1wT7F6nmsrc+uVa4sl/efmb47zpahyaBmntaipcaHwYjTbWh52AWxI4289eZiFEON6xfqGaSIksXop5s/yPNflkzmX5ADCJpQihxC8D243e8SsCbWVLukzVRfAscauXVPzXsjSegEwO/+e17sA1lsPQXTcoK2TPusa2mfTWwtnACw0RghZB/YGCcqNdgFgD9c1BcbQcwEp4+mR4Huor1pFUDOuXQCrAaCJsEekGGujx4CQWSZrj2APpSKMtZaKdaUcoyPHU7AfHQjS8xxRpq8t+7NzwArCq9TaVOhZmocCUT0CbLlj2QWwIW3luVO5E2mp5+0NAwDRnNpSIBA9k7iJWCUBnwadFcp1/eYRUU0H5GYUSDWvQ4YG+dgq7QJYJqcJLmW08x4JyxUKhOmDAIwzlzmAHTAKEPXh8j2tkND6DDnKU5TqVnITCkBtoTCY426ADS3ityK87SekPT3Bxo22gGTNhmXU1th7d917aiFLaYJFtcsWy8/ca7w9FGvuboGOeehx9/a8QuPfDbCh9cBeQZ0SwGpGrXI7AEtoWBvnQMHi7YinQ59YS1G+IYDY+ygKb7xbeYe7AdZbN0KIPQALM3tHSz2m9r6HG4/iq/mEPJzeY4y1B2Bk7MgDwRs+IWVeA1YAaXkrQLVgzL3e0y3eDbChrZ2tIm7s/6FtLTNjAjbymYBPCy7ChgLj08sFDAkl7dMPfcIDwAFwSoAtcxAQkodiA9AyBkBcTEtvaJOb7FFJ2mIuPeSLcduxcb2FW7wbYBEMb9I9CBpjKtZ0j3WmCDPz4yNAjI11lmfQjPFay4elARgxZcLa0OMz92gvlOjTvpfjdjIWTwnTF232SKHlU874WvvfDbAIgGVIiomtk+X9kCvujaX0nrh4aGAEmTn2EpIec29tgzlpmsQAp/sKWdlUxN2zsjHlAL1tBB6e9I7gxpRQ7740HSlfDrDanUHg9Ee7o1hBrnmuhZQyrhX3NTAtYc94bZUsNMhJmuaWlrH3PUuGZ+YlgKzbBqihut77pfc8uaD/0W7xboCFQJrAUt7CrShlDhpVW5dcQS3tZ/b6tYANLX/gecoDsWtoDxDwR5QryiFmhXvRGIUuMqvzlNfQ2v90gGXyMyYtrFcFLHzRwplLB2v9dBvQNZasW5zbZ6zNHs+0POj5UB6pMHYFrNWeMvGRE65llhW62naO/p7wiLwEPPo9XU65rZ5bnEtDLK/sBujjnlJml4DjoCUHJ6Tv2DoWb2xU2hWwMFwzT8oprTuKGKl2ZXzkV006gFQCWP2epiOuZSx5wEi50bSHa2wDULpfr4w7y3v0mZNCcyqhS04/us6UgB0dadMEKClrJs/oBZTMpbauVrIlgqnf03Rk7ZlKFhgphY7Vpr/QByUhH9rik6ME7Dhrg2m2nZLrXQFr1yfCyJTWLZlgz7pacFJC07PfmdrSPCsBLDwV/uqcPdNUssCYRT5iwbRR8rErYENMnIUhVpC0lRi5TrH9znStedYDsIA3lXSEnvqzyAdWWSsfXR4lH1MCFo06Y8J9E6bMIjRb00kDNsc6yviwOEI7m6fcUftuiaKQ/kflocDpKPnYFbAhl2ImhmhGa2H19gN13bOWNQ0AXm6yoNOgzXEfdf0SRZE7vtp6WonrMZ4SsCEmHgGws46xVvBy36sFrBftFQHPEW5ryXLHO7qepUfJnGrGtquFDQF2Jg2qiar3BEefaNH9zlS2XlHJ2ESYbZ6zBEJB6vdS/X7xi1+8/cWH//z2P3/xl24/9qNvf/jCx3d++3fcfuD7vv/23972Iw8no37nt3/79td/9Ve3//j3f081F3xu6SFjzFFCwUYjD6YELJOeMVkFM+MYR4+phQYizDbP8Vas68k4Quml3/Mj0rZfe/2On/7p2x/+/h/c/uWf/znU9JP7lh7S5ikBG3OTnlBmght2vFfci7UCWsIWayVFuHO8Fet6xgD7pS996fa5z33u9qlPfer2iU984vZPb/zT7f/9/d8/fGvn/37sY7ePfuS12198+MO3P/s/f/rwT3d/8kd/dPvf7//A7f2vvHJ75eWXb6/84cu397/88u0Dr7ySnJ6lh8zplFFiqCETtHmSUjtV0OOMCc1OwxverRXQkg5DgIWmqWQBiys6Q7L0EPkYJRu7usQQXCZo81ETbmUyX9uSsY5ye1rHOPJ9K6AlfcUAm+L3rHuxlh4iG6mtqhK66boLsJoaGWUtdDnBkowmD1XFfgkiBTQ9OXtiSYSbPHUc1QJjFmVpLb/MSc+7Z3l3wGoAyGTJSwShJ0FSbdUezUu1e6TntXwKCTftpQBoAYvczJBsMIy5jBzbAmwh17XQzbr9VDil4uojAIvgx9KsgCVgpumRo3xi80w9W4BNUcg8t/tu5vElLrWAlnhCdh2q20lZJQvYGZSlHZPMp4QmpQIzLWBHhcVLCWTrWyaNCi7Yfme6FsEkL4nWWtrpdlJbO967e9NEL49kLpzIGpmmBWxqTTOSKLG27Tc0RmrT2Dj2fCbCSV7CJw90uq3YnLx3Y/VHP7PBN5nH6DPmC7AVnBXmlApsRVdTvqLP9fYEbOyXHjzAlhxckX8JDOWxvj0m8DMzWg6kPFqBL8B63Ejc03uxozVqYii7PNaR/RLAMlgRbC+PCbsHWNax8vtMNveCQV6f+h4/KcO/FfIfPDEAh9bi/MDB6LQAW0FhLbCpYElF89O/oudfuhetAWLLHmABDgAKWTTbRu01Shjly5o8Zrlt0FH3V7Ker2Xy7oD1Fu4QoVQQaglQ854+ADDj7yjXzKnkHb33WKqwtIDbslhrASl/4Wnr9LjGEgo4PSURogW/sBjqfwvryrh2ByxMChEBrVpC0BChe9+3Y465T737nqE9Pf9SwOrfxQrxfcR9AJo6TRWiLRYX9zs2rq3kdGrACoFmA67+Xixj3IpZIYHa+n4LYLU7LfwdmeMBlfIHBUxwCouaAipjhx5bpd0BG1rAe0ycBbgIgB7frHvGo4RIAza1f2rHoN1pTcNYmag0FpJ+WSdC/xAIdUBQtwlwkR+CSgBRf3C9ecZHv5NTZlxbpt0Ba4U/h0gQfe8DC3qcWzNtSwHx+rKBF69O6J4Gu6ahLQM8FGEsAOT1USNPtu/c6z34vjtgIbre18slFvXQjHsBV4+5dB3nCdqR7llQ5I4dVzMVSIKWIeuZ20+uUiiRNV0XZVK7Hs6dQ6jeFIDVUVdNmNwyQrB14MeuxUIEPuP9HMBiGflfG1xPXM3cfVHA1iMhU/BIK9ZcefLqAVLa3AuoQpMpAAvYWqOHrFEQjq2Aa9dipa6bMOCouRZq+VMpgJkTpNHv2vIIQCATKBlceRQCH/gHoL0Pz6iDS857W8lUjixMAVgZKESyDCy93gq4dqwjBE3oMmNeypec+ljDmcAxI92nAiwEgmGAodWVGQ1cG3hhzFdKrfzxAAxNV4pTYDrA6uFitazr6TE6dg/g4rL1Dk7ZdRyu1ZUS843RveQZPL7akqJWVqYGrEwKq8t6IrTHliscrLEIhPRIjEn3W7of2WMMe7bRA7B4JcsFLuPiIQCrp4Tb1ApcwEWAqtXqasBSvpLwhQCLq4zFlIANXpKlk1y30l/LxVXKhwOsMKYHcBEcopofevWDVeC1QoubfJXEoQEBHhF+5h5ya6Weza9Cq57zPCxghQi9gCvgZb3L17lytL9dX18p8MRcBYAorliyik3ei72znvkUODxgZVo9gSsCRcBKzp4CYg6EayuihZZ3APBVkp57CrDaGgttyVcqp8BpACtTxzULaXQtLD3K9vQOAL9KKgGsrqvpfhVa9Zzn6QArxNkSuFoIc1xpGeORcw3ClIWFF5pGUr5SkK4Xr08LWCEQAAq5ZCI4PXNc8yukEsDaLTChN0BeqYwCpweskAOhYauh9cyyCFso54D4FZK2mikLCz28rbirKLee8nAZwGqiETgCWJ4QhYCYe59toiukUsDaiDr0vIpy6ykPlwSsJiAuM5YXgep1Pla3f9ZyKWChsVV6OZb5rPSrndflAWsJB4ARRtZofAAygmU/Mdea98+eNGABYirZ+gLe1Hvr+T0FFmDv6VF0FbLIWJOzJwvAnPkKSHWu97Vz2rh6nQXYBgnw1mUII/fPnmoA63klV1BuPWVhAbaBmkQ5tbWQ8hUOUNQA1lNwV1BuDSL25NUF2Cckyb8R2l8EuGd39ZifKCjynKT3buXdKyi3HNrk1lmAzaVUoJ7n5iGMV3D1BHTkWNxUslZZ3r/K6bAUfXKeL8DmUClSx7MaCOIVXD0BXC5grVWW99cBioiAmUcLsIYgpZchIbyCqyeAywUstNXvSHkdoMiXugXYfFoFa4a2d3LcxGCjB3gggGsF7DpAkc/sBdh8WgVrhr5cgLt85qQBmztX/Y6Ur/Z7WC0ysQDbQr2vvBv63aKzWw4BHHkuYKGJfk/KHdhwiSYWYDuwOba906H5aZvQEfIF2G3YtADbic4hy3Hmdaye8wJsJ0FKNLMAmyBQ7mPv2yi4e2eOgGrAso6PJbwQfhfL/qzOcoljVHv6bAH2KU2q7rD5L8Kn8zN/P1YDlrJN0ASQ8kN2mia2zPeSV8qjwAJsHp2yaoW+EH/Wkzy4wQI+LCfA5N8V+LAPLc9S+Zm9kCzBKai0AFtArFRVBM8TzrOe5NGA9eadc4897LMqtJS81DxfgK2hWuCd0FnZsx5T7AHYsyqzgIg0316AbSbhfQOhU0/3tc5xFVJQuZb1av+p24PrC7A9qKjaCJ16OqNw1gCWdT6WmajxSuUUWIAtp1n0jdCpp9S2R7TRSR/GDoyIlcXjIIIMSM/+HeEt2LQAO4DKnlt81m/vCDBtztp0AbS/cC3A9qdp8J8GzijAoa2sAWRdTd5utwXYAWKAdbEWh+sz7jfqwxN6zgPIuppcgB0jA6G13RlPPYW2dsZQdrW6LOwgGfB+IRALdLZDAiFvYkWBxwjWAuwYut5CgoyV/dCrHzxNQCa0tcP9lfpTYAG2P00fW/SixXqdR+SY87dHBDABNMYdOti/APsoBl0LC7BdyXnfWOgQhQatLgNgDs6/94V3P3zL5Y1nz+4b3PGKsQhAcw72s7ZdqT8FFmD70/SxRayQBmRtGTcaS/a+F196+AAePr3Xw9IuX4mjL5RH6Purqbmc8WTXI2N3LCzADiZ+aJ8yJfAlz8Uyy1fbdI61Bnzk+r6UawEZGx8/HbPSGAoswI6h62OroV+iiAn8kZ+xbj/jAZFHhu5cWIAdzADc1iMDsGTsC6yDhWkdnBhPYHogYsoppy3c4xKA9axLgG3tvY6Xp2Vhx9P4rgfcRdxkDlaktn16AmpEW4wfoPYOft0RbF3cUWAB9o4c218g7ERU2QYBxKGzuSMAV9ImgSTGBkAZ69pn3V5W6HEBdh+6J3sFyICCDwCRD6DRn1IrjVuu39cgpA+sv/S7gkdJNm1eYQF2c5KvDhcF6imwAFtPu/XmosDmFFiA3Zzkq8NFgXoKLMDW0269uSiwOQUWYDcn+epwUaCeAv8JujGiRZrimCkAAAAASUVORK5CYII=;" vertex="1" parent="1">
          <mxGeometry x="346.58" y="164" width="134.85" height="180" as="geometry" />
        </mxCell>
      </root>
    </mxGraphModel>
  </diagram>
</mxfile>
